<svg width="113" height="46" viewBox="0 0 113 46" fill="none" xmlns="http://www.w3.org/2000/svg">
<path d="M31.1159 3.24897L31.9812 3.10543V2.56714C31.1159 2.56714 28.6562 2.66283 26.973 2.66283C25.3372 2.66283 22.6879 2.56714 21.7693 2.56714V3.10543L23.3102 3.29682C24.8512 3.49419 25.5269 4.4631 25.5269 5.97031C25.5269 7.42966 25.0942 9.08041 24.0807 11.9991L17.4842 30.57L9.15103 8.40456C8.76579 7.33396 8.47537 6.11983 8.47537 5.438C8.47537 4.17602 9.24586 3.49419 10.692 3.29682L12.3278 3.10543V2.56714C11.4625 2.56714 7.07664 2.66283 5.39342 2.66283C3.75761 2.66283 0.912733 2.56714 0 2.56714V3.15327L1.29798 3.34466C2.88637 3.58988 3.75761 4.65449 4.76518 7.38181L15.8484 36.4971H16.3284L26.73 8.6438C28.1762 4.70832 29.2371 3.54204 31.1159 3.24897Z" fill="black"/>
<path d="M44.7539 21.772C44.5109 15.5518 41.7194 12.4417 36.563 12.4417C31.7919 12.4417 26.7363 17.3042 26.7363 24.9359C26.7363 32.0831 30.6362 36.5031 36.32 36.5031C39.9354 36.5031 42.8218 34.0748 44.6531 30.5221L44.0782 30.229C42.152 32.8068 40.5636 34.1167 37.8136 34.1167C33.2381 34.1167 30.0079 29.7446 30.0079 22.3043V21.772H44.7539ZM35.9348 13.3627C38.8271 13.3627 40.6051 16.1319 40.7059 20.9466H30.0613C30.3991 15.8388 32.8054 13.3627 35.9348 13.3627Z" fill="black"/>
<path d="M60.1218 12.4895C58.1956 12.4895 56.3642 13.7036 53.7623 16.9094V12.8723L53.3297 12.5792L47.0176 14.1881V14.5769L48.2207 15.0613C49.9039 15.7431 50.2892 16.3711 50.2892 18.7575V30.1812C50.2892 34.3619 49.9514 34.8463 47.8829 35.2351L47.065 35.3786V35.9169C48.1259 35.9169 50.0995 35.8691 52.0732 35.8691C53.9994 35.8691 56.6013 35.9169 58 35.9169V35.3786L56.9391 35.2351C54.0942 34.8463 53.7623 34.4097 53.7623 30.1812V18.1714C54.675 17.0051 55.8308 15.9824 57.1821 15.2527C58.8712 16.7121 59.784 17.2444 60.6493 17.2444C61.6154 17.2444 62.4807 16.1738 62.4807 14.4273C62.4807 13.1175 61.5205 12.4895 60.1218 12.4895Z" fill="black"/>
<path d="M71.2526 30.1812V12.8783L70.8673 12.5852L64.5078 14.1881V14.5769L65.711 15.0613C67.3942 15.7432 67.7794 16.3712 67.7794 18.7576V30.1812C67.7794 34.3619 67.489 34.8463 65.3731 35.2351L64.5552 35.3787V35.9169C65.6635 35.9169 67.5898 35.8691 69.5634 35.8691C71.4896 35.8691 73.4159 35.9169 74.5242 35.9169V35.3787L73.7063 35.2351C71.537 34.8463 71.2526 34.4097 71.2526 30.1812Z" fill="black"/>
<path d="M69.0826 7.238C70.4814 7.238 71.5423 6.21526 71.5423 4.80973C71.5423 3.39822 70.4814 2.27979 69.0826 2.27979C67.6839 2.27979 66.6289 3.39822 66.6289 4.80973C66.623 6.21526 67.6839 7.238 69.0826 7.238Z" fill="black"/>
<path d="M86.52 1.98681C87.9187 4.07417 89.0271 5.14476 90.325 5.14476C91.4808 5.14476 92.2987 3.7811 92.2987 2.56697C92.2987 1.35283 91.0955 0.425781 89.1693 0.425781C83.5803 0.425781 79.39 6.64598 79.39 12.92V13.2549L75.1523 14.5588V15.0911H79.39V30.1691C79.39 34.3498 79.0522 34.8821 76.9837 35.223L76.1184 35.3666V35.9048C77.2267 35.9048 79.2004 35.857 81.174 35.857C83.0528 35.857 85.6547 35.9048 87.0475 35.9048V35.3666L86.034 35.223C83.1417 34.7864 82.8098 34.3976 82.8098 30.1691V15.0971L87.818 13.554V13.0217H82.8098V10.6413C82.8157 5.19859 83.9655 3.0574 86.52 1.98681Z" fill="black"/>
<path d="M108.875 13.0696C106.949 13.0696 105.645 13.0217 104.638 13.0217V13.56L105.699 13.7036C106.807 13.8471 107.388 14.4332 107.388 15.4081C107.388 16.4787 106.955 18.0816 106.232 20.0733L102.184 31.4491L97.2705 17.9381C96.9327 17.017 96.6423 15.8986 96.6423 15.1689C96.6423 14.3435 96.9327 13.9069 98.2781 13.7095L99.4338 13.566V13.0277C98.3729 13.0277 96.2571 13.0756 94.2775 13.0756C92.3513 13.0756 90.5199 13.0277 89.459 13.0277V13.566L90.3717 13.7095C91.9601 13.9548 92.4402 14.5828 93.8389 18.279L100.483 35.875C99.665 38.064 98.8471 39.96 98.0766 41.4193C94.7516 40.9827 92.8254 42.1012 92.8254 43.7519C92.8254 45.0139 93.5485 45.7436 94.8465 45.7436C96.5297 45.7436 98.2663 44.2364 99.8072 40.1514L107.945 18.6199C109.344 14.9715 110.013 14.0026 111.608 13.7095L112.425 13.566V13.0277C111.376 13.0217 110.802 13.0696 108.875 13.0696Z" fill="black"/>
</svg>
