<?xml version="1.0" encoding="UTF-8"?>
<svg width="60px" height="19px" viewBox="0 0 60 19" version="1.1" xmlns="http://www.w3.org/2000/svg" xmlns:xlink="http://www.w3.org/1999/xlink">
    <!-- Generator: Sketch 60 (88103) - https://sketch.com -->
    <title>icon-menu</title>
    <desc>Created with Sketch.</desc>
    <g id="Page-1" stroke="none" stroke-width="1" fill="none" fill-rule="evenodd">
        <g id="icon-menu" fill="#000000" fill-rule="nonzero">
            <path d="M18.9893,18 L18.9893,0.983999 L15.8453,0.983999 L9.79731,14.832 L3.79731,0.983999 L0.605313,0.983999 L0.605313,18 L2.93331,18 L2.93331,4.752 L8.69331,18 L10.8533,18 L16.6613,4.752 L16.6613,18 L18.9893,18 Z M24.5403,11.04 C24.6363,9.552 25.7883,8.088 27.6843,8.088 C29.7243,8.088 30.8043,9.384 30.8523,11.04 L24.5403,11.04 Z M31.1883,14.04 C30.7563,15.336 29.8203,16.368 27.9483,16.368 C26.0043,16.368 24.5163,14.928 24.4683,12.864 L33.1562,12.864 C33.1803,12.72 33.2043,12.432 33.2043,12.144 C33.2043,8.544 31.2123,6.096 27.6603,6.096 C24.7563,6.096 22.1403,8.568 22.1403,12.192 C22.1403,16.104 24.8523,18.36 27.9483,18.36 C30.6363,18.36 32.4843,16.752 33.1323,14.712 L31.1883,14.04 Z M38.3401,11.328 C38.3401,9.576 39.2521,8.16 41.0281,8.16 C43.0441,8.16 43.7161,9.456 43.7161,11.064 L43.7161,18 L45.9721,18 L45.9721,10.68 C45.9721,8.112 44.6041,6.12 41.8441,6.12 C40.5001,6.12 39.1321,6.672 38.2921,8.112 L38.2921,6.456 L36.0841,6.456 L36.0841,18 L38.3401,18 L38.3401,11.328 Z M56.9343,16.608 C56.9343,17.088 56.9823,17.736 57.0303,18 L59.1903,18 C59.1423,17.592 59.0703,16.776 59.0703,15.864 L59.0703,6.456 L56.8143,6.456 L56.8143,13.416 C56.8143,15.168 55.9023,16.368 54.0783,16.368 C52.1823,16.368 51.4623,14.976 51.4623,13.392 L51.4623,6.456 L49.2063,6.456 L49.2063,13.728 C49.2063,16.344 50.8383,18.36 53.5263,18.36 C54.8703,18.36 56.3103,17.808 56.9343,16.608 Z" id="Shape"></path>
        </g>
    </g>
</svg>