<svg width="87" height="12" viewBox="0 0 87 12" fill="none" xmlns="http://www.w3.org/2000/svg">
<path d="M8.448 9V4.836H4.38V5.892H7.332C7.284 6.768 6.6 8.112 4.704 8.112C3.18 8.112 1.74 6.996 1.74 4.74C1.74 2.484 3.228 1.392 4.752 1.392C6.072 1.392 7.068 2.112 7.452 3.336L8.52 2.88C8.028 1.344 6.6 0.312 4.752 0.312C2.652 0.312 0.54 1.86 0.54 4.74C0.54 7.62 2.532 9.18 4.668 9.18C6.096 9.18 7.02 8.472 7.392 7.8L7.5 9H8.448ZM19.475 8.172C18.515 8.172 17.675 7.452 17.675 6.108C17.675 4.776 18.515 4.056 19.475 4.056C20.435 4.056 21.275 4.776 21.275 6.108C21.275 7.452 20.435 8.172 19.475 8.172ZM19.475 3.048C17.747 3.048 16.523 4.356 16.523 6.108C16.523 7.872 17.747 9.18 19.475 9.18C21.203 9.18 22.427 7.872 22.427 6.108C22.427 4.356 21.203 3.048 19.475 3.048ZM38.8688 3.228H37.6568L36.0008 7.68L34.3568 3.228H33.0848L35.4248 9H36.5648L38.8688 3.228ZM44.0994 9V8.16C44.4594 8.784 45.1194 9.156 45.9714 9.156C47.6874 9.156 48.6594 7.8 48.6594 6.084C48.6594 4.404 47.7594 3.06 46.0074 3.06C45.0474 3.06 44.3754 3.528 44.0994 4.044V0.312H42.9834V9H44.0994ZM47.5074 6.084C47.5074 7.332 46.8354 8.148 45.8034 8.148C44.8074 8.148 44.0874 7.332 44.0874 6.084C44.0874 4.836 44.8074 4.056 45.8034 4.056C46.8474 4.056 47.5074 4.836 47.5074 6.084ZM56.0606 7.5C56.1566 8.16 56.8286 9.18 58.4126 9.18C59.8406 9.18 60.5246 8.208 60.5246 7.392C60.5246 6.54 59.9726 5.904 58.9286 5.676L57.9926 5.472C57.5486 5.376 57.3326 5.124 57.3326 4.776C57.3326 4.38 57.7166 4.008 58.2926 4.008C59.2046 4.008 59.4446 4.668 59.4926 4.968L60.4886 4.596C60.3686 4.08 59.8766 3.048 58.2926 3.048C57.1646 3.048 56.2406 3.888 56.2406 4.872C56.2406 5.688 56.7806 6.3 57.6806 6.492L58.6646 6.708C59.1446 6.816 59.4086 7.092 59.4086 7.452C59.4086 7.86 59.0606 8.22 58.4246 8.22C57.6086 8.22 57.1526 7.74 57.0806 7.14L56.0606 7.5ZM73.0216 5.664C73.0216 4.788 73.4776 4.08 74.3656 4.08C75.3736 4.08 75.7096 4.728 75.7096 5.532V9H76.8376V5.34C76.8376 4.056 76.1536 3.06 74.7736 3.06C74.1016 3.06 73.4176 3.336 72.9976 4.056V3.228H71.8936V9H73.0216V5.664ZM83.1188 11.412L86.8748 3.228H85.6628L83.9348 7.212L82.1348 3.228H80.8388L83.3228 8.364L81.8828 11.412H83.1188Z" fill="#F177AE"/>
<path d="M12.6078 8.172C11.6478 8.172 10.8078 7.452 10.8078 6.108C10.8078 4.776 11.6478 4.056 12.6078 4.056C13.5678 4.056 14.4078 4.776 14.4078 6.108C14.4078 7.452 13.5678 8.172 12.6078 8.172ZM12.6078 3.048C10.8798 3.048 9.65578 4.356 9.65578 6.108C9.65578 7.872 10.8798 9.18 12.6078 9.18C14.3358 9.18 15.5598 7.872 15.5598 6.108C15.5598 4.356 14.3358 3.048 12.6078 3.048ZM24.5422 6.096C24.5422 4.908 25.2142 4.068 26.2462 4.068C27.2782 4.068 27.9022 4.884 27.9022 6.072C27.9022 7.26 27.2662 8.16 26.2342 8.16C25.1542 8.16 24.5422 7.284 24.5422 6.096ZM27.9142 8.22C27.9142 8.568 27.9502 8.868 27.9742 9H29.0662C29.0542 8.904 29.0062 8.484 29.0062 7.932V0.312H27.8902V4.044C27.6982 3.576 27.1462 3.072 26.1262 3.072C24.4942 3.072 23.3902 4.464 23.3902 6.096C23.3902 7.812 24.4342 9.156 26.1262 9.156C27.0262 9.156 27.6382 8.676 27.9142 8.124V8.22ZM41.0643 9V3.228H39.9483V9H41.0643ZM39.6963 1.044C39.6963 1.488 40.0563 1.848 40.5003 1.848C40.9563 1.848 41.3163 1.488 41.3163 1.044C41.3163 0.588 40.9563 0.228 40.5003 0.228C40.0563 0.228 39.6963 0.588 39.6963 1.044ZM50.8287 5.52C50.8767 4.776 51.4527 4.044 52.4007 4.044C53.4207 4.044 53.9607 4.692 53.9847 5.52H50.8287ZM54.1527 7.02C53.9367 7.668 53.4687 8.184 52.5327 8.184C51.5607 8.184 50.8167 7.464 50.7927 6.432H55.1367C55.1487 6.36 55.1607 6.216 55.1607 6.072C55.1607 4.272 54.1647 3.048 52.3887 3.048C50.9367 3.048 49.6287 4.284 49.6287 6.096C49.6287 8.052 50.9847 9.18 52.5327 9.18C53.8767 9.18 54.8007 8.376 55.1247 7.356L54.1527 7.02ZM67.4984 8.172C66.5384 8.172 65.6984 7.452 65.6984 6.108C65.6984 4.776 66.5384 4.056 67.4984 4.056C68.4584 4.056 69.2984 4.776 69.2984 6.108C69.2984 7.452 68.4584 8.172 67.4984 8.172ZM67.4984 3.048C65.7704 3.048 64.5464 4.356 64.5464 6.108C64.5464 7.872 65.7704 9.18 67.4984 9.18C69.2264 9.18 70.4504 7.872 70.4504 6.108C70.4504 4.356 69.2264 3.048 67.4984 3.048ZM79.7599 9V0.312H78.6319V9H79.7599Z" fill="#E52823"/>
</svg>
