<svg width="60" height="19" viewBox="0 0 60 19" fill="none" xmlns="http://www.w3.org/2000/svg">
<path d="M18.9893 18V0.983999H15.8453L9.79731 14.832L3.79731 0.983999H0.605313V18H2.93331V4.752L8.69331 18H10.8533L16.6613 4.752V18H18.9893ZM24.5403 11.04C24.6363 9.552 25.7883 8.088 27.6843 8.088C29.7243 8.088 30.8043 9.384 30.8523 11.04H24.5403ZM31.1883 14.04C30.7563 15.336 29.8203 16.368 27.9483 16.368C26.0043 16.368 24.5163 14.928 24.4683 12.864H33.1562C33.1803 12.72 33.2043 12.432 33.2043 12.144C33.2043 8.544 31.2123 6.096 27.6603 6.096C24.7563 6.096 22.1403 8.568 22.1403 12.192C22.1403 16.104 24.8523 18.36 27.9483 18.36C30.6363 18.36 32.4843 16.752 33.1323 14.712L31.1883 14.04ZM38.3401 11.328C38.3401 9.576 39.2521 8.16 41.0281 8.16C43.0441 8.16 43.7161 9.456 43.7161 11.064V18H45.9721V10.68C45.9721 8.112 44.6041 6.12 41.8441 6.12C40.5001 6.12 39.1321 6.672 38.2921 8.112V6.456H36.0841V18H38.3401V11.328ZM56.9343 16.608C56.9343 17.088 56.9823 17.736 57.0303 18H59.1903C59.1423 17.592 59.0703 16.776 59.0703 15.864V6.456H56.8143V13.416C56.8143 15.168 55.9023 16.368 54.0783 16.368C52.1823 16.368 51.4623 14.976 51.4623 13.392V6.456H49.2063V13.728C49.2063 16.344 50.8383 18.36 53.5263 18.36C54.8703 18.36 56.3103 17.808 56.9343 16.608Z" fill="white"/>
</svg>
