<?xml version="1.0" encoding="iso-8859-1"?>
<!-- Generator: Adobe Illustrator 24.0.1, SVG Export Plug-In . SVG Version: 6.00 Build 0)  -->
<svg version="1.1" id="Layer_1" xmlns="http://www.w3.org/2000/svg" xmlns:xlink="http://www.w3.org/1999/xlink" x="0px" y="0px"
	 viewBox="0 0 706 188.806" enable-background="new 0 0 706 188.806" xml:space="preserve">
<g>
	<path d="M660.091,86.201c0.884,0,1.468-0.427,1.61-1.026c0.3-1.026,0.3-2.494,0.3-3.818c0-14.133-11.925-24.733-33.851-24.733
		c-20.744,0-36.216,9.859-41.759,25.745c0-5.599-1.909-10.286-5.001-13.977c4.701,0.442,9.275,0.884,12.21,0.884
		c1.923,0,2.351-2.494,2.351-7.651c0-1.909-0.285-2.208-2.351-2.208c-3.975,0-13.393,0.3-23.551,0.741
		c-5.3-2.209-11.184-3.391-16.342-3.391c-22.226,0-38.112,10.158-38.112,26.058c0,11.184,7.651,18.692,16.783,22.81
		c-4.066,1.912-8.278,3.567-12.237,5.697c-2.882,1.55-6.28,5.021-9.661,2.427c-1.73-1.327-2.206-3.736-2.161-5.916
		c0.198-9.643,0.082-19.328,0.082-28.993c0-14.276-9.418-22.226-29.435-22.226c-22.525,0-40.776,14.418-40.776,23.85
		c0,5.443,4.118,8.235,8.691,8.235c8.234,0,14.418-5.001,15.885-15.601l1.04-7.066c0.285-1.909,0.883-2.351,2.351-2.351
		c5.585,0,8.834,6.468,8.834,17.068v4.716c-13.991,3.092-25.033,6.326-31.943,10.002c-7.651,4.132-10.458,9.275-10.458,18.251
		c0,11.483,7.808,20.615,19.134,20.615c10.757,0,19.732-6.924,24.449-18.692c3.675,12.794,9.859,18.692,18.536,18.692
		c5.913,0,11.255-2.479,17.837-8.249c1.254,7.537,6.012,12.908,12.908,16.042c-10.158,3.092-17.225,4.573-17.225,10.6
		c0,8.392,10.016,13.107,36.8,13.107c34.151,0,49.894-14.432,49.894-28.409c0-12.509-13.093-20.317-34.735-20.317h-13.25
		c-10.6,0-13.25-1.468-13.25-4.716c0-2.194,1.325-4.117,4.132-4.844c3.533,1.026,7.209,1.467,10.443,1.467
		c17.539,0,31.145-6.596,36.089-17.268c-0.142,1.411-0.214,2.85-0.214,4.317c0,23.252,16.926,38.268,38.853,38.268
		c15.9,0,32.527-10.015,38.567-25.018c0.584-1.482-3.091-4.274-4.417-3.092c-3.975,3.519-8.249,6.027-14.276,6.027
		c-5.3,0-9.275-1.468-14.86-7.066c-4.132-4.118-8.107-11.184-10.316-18.536C631.682,87.084,648.465,86.8,660.091,86.201z
		 M474.99,113.442c-0.442,0.442-1.183,1.026-2.65,1.026c-4.859,0-10.458-7.209-10.458-15.458c0-4.417,1.325-6.183,4.275-6.183
		c1.468,0,3.818,0.883,5.742,2.806c1.767,1.767,3.092,4.118,3.092,7.352v10.457H474.99z M541.796,145.385h8.092
		c19.134,0,22.667,3.091,22.667,7.351c0,3.975-6.767,7.651-19.875,7.651c-14.575,0-23.251-4.859-23.251-11.028
		c0-1.767,0.726-3.69,2.351-5.015C534.871,145.085,538.262,145.385,541.796,145.385z M556.071,104.167
		c-5.001,0-14.133-18.992-14.133-36.06c0-5.443,1.325-6.483,3.975-6.483c4.859,0,14.133,18.992,14.133,36.06
		C560.046,103.141,558.722,104.167,556.071,104.167z M621.523,82.825l-4.716,0.584c-0.584-3.092-1.026-6.326-1.026-9.275
		c0-8.819,4.559-12.951,9.132-12.951c4.117,0,6.469,2.95,6.469,8.535C631.383,77.225,628.291,82.083,621.523,82.825z"/>
	<path d="M403.622,126.692l-5.015-1.04c-1.468-0.285-1.767-0.584-1.767-2.052V81.799c0-15.9-9.561-25.175-25.019-25.175
		c-12.951,0-22.368,8.691-26.343,17.368c0-8.392,0.584-13.535,0.584-16.043c0-0.865-1.986-1.841-3.223-2.126
		c-0.23-0.054-0.435-0.082-0.595-0.082c-0.441,0-0.741,0.142-1.182,0.441c-11.783,8.392-23.266,15.601-35.333,20.317
		c-0.372,0.122-0.64,0.247-0.824,0.523c-0.948-6.988-4.031-12.369-8.841-15.844c-0.713-0.517-1.466-0.991-2.254-1.422
		c-0.063-0.029-0.125-0.057-0.189-0.084c-0.063-0.028-0.127-0.056-0.19-0.084c-0.127-0.055-0.256-0.11-0.385-0.163
		c-0.061-0.025-0.123-0.051-0.185-0.076c-0.095-0.038-0.191-0.077-0.287-0.114c-0.066-0.027-0.132-0.052-0.198-0.077
		c-0.125-0.048-0.251-0.096-0.377-0.142c-0.091-0.034-0.183-0.067-0.275-0.1c-0.093-0.033-0.186-0.066-0.28-0.099
		c-0.055-0.019-0.11-0.038-0.166-0.057c-0.153-0.052-0.306-0.103-0.461-0.153c-0.07-0.023-0.141-0.045-0.211-0.067
		c-0.126-0.04-0.253-0.078-0.38-0.117c-0.025-0.008-0.052-0.016-0.077-0.023c-0.053-0.016-0.105-0.031-0.158-0.046
		c-0.167-0.049-0.335-0.097-0.505-0.144c-0.057-0.016-0.115-0.032-0.173-0.048c-0.332-0.089-0.669-0.176-1.011-0.258
		c-0.106-0.025-0.213-0.05-0.321-0.075c-0.119-0.027-0.24-0.055-0.36-0.081c-0.12-0.027-0.241-0.053-0.363-0.078
		c-0.112-0.024-0.225-0.047-0.339-0.07c-0.211-0.042-0.424-0.084-0.64-0.123c-0.081-0.015-0.162-0.03-0.243-0.044
		c-0.138-0.025-0.278-0.049-0.418-0.072c-0.21-0.036-0.421-0.07-0.634-0.103c-0.11-0.017-0.222-0.034-0.333-0.05
		c-0.037-0.005-0.072-0.01-0.109-0.016c-0.103-0.015-0.208-0.03-0.312-0.044c-0.151-0.021-0.303-0.041-0.457-0.061
		c-0.115-0.015-0.23-0.029-0.347-0.043c-0.093-0.012-0.186-0.022-0.279-0.033c-0.098-0.012-0.196-0.023-0.295-0.033
		c-0.219-0.025-0.439-0.048-0.66-0.069c-0.089-0.008-0.179-0.017-0.269-0.025c-0.18-0.017-0.361-0.033-0.543-0.048
		c-0.091-0.007-0.182-0.014-0.273-0.022c-0.091-0.007-0.183-0.014-0.275-0.021c-0.092-0.007-0.185-0.014-0.277-0.02
		c-0.083-0.006-0.166-0.011-0.251-0.016c-0.017-0.002-0.034-0.003-0.051-0.003c-0.085-0.006-0.171-0.011-0.257-0.016
		c-0.093-0.006-0.187-0.012-0.282-0.016c-0.094-0.005-0.189-0.01-0.283-0.014c-0.095-0.005-0.19-0.009-0.285-0.014
		s-0.191-0.009-0.286-0.012c-0.095-0.004-0.189-0.007-0.285-0.011c-0.339-0.012-0.68-0.022-1.025-0.029
		c-0.084-0.002-0.168-0.004-0.252-0.005c-0.131-0.003-0.263-0.005-0.395-0.006c-0.131-0.002-0.264-0.003-0.396-0.004
		c-0.17-0.001-0.341-0.002-0.513-0.002c-0.193,0-0.386,0.001-0.579,0.003c-0.082,0.001-0.164,0.002-0.246,0.003
		c-0.061,0.001-0.122,0.002-0.183,0.003c-0.123,0.002-0.247,0.005-0.371,0.008c-0.153,0.004-0.305,0.008-0.457,0.014
		c-0.257,0.009-0.514,0.02-0.77,0.033c-0.087,0.004-0.174,0.008-0.26,0.013c-0.068,0.004-0.135,0.008-0.203,0.012
		c-0.087,0.005-0.174,0.01-0.26,0.016c-0.38,0.023-0.758,0.052-1.134,0.084c-0.065,0.005-0.13,0.011-0.194,0.017
		c-0.097,0.008-0.193,0.017-0.289,0.026c-0.018,0.001-0.037,0.003-0.055,0.005c-0.097,0.01-0.194,0.018-0.292,0.028
		c-0.072,0.007-0.144,0.014-0.217,0.022c-0.243,0.025-0.486,0.052-0.728,0.081c-0.076,0.008-0.151,0.018-0.227,0.027
		c-0.082,0.01-0.164,0.02-0.246,0.03c-0.039,0.005-0.077,0.01-0.116,0.015c-0.082,0.01-0.163,0.022-0.244,0.033
		c-0.076,0.01-0.152,0.02-0.228,0.031c-0.244,0.033-0.487,0.069-0.73,0.106c-0.097,0.014-0.194,0.029-0.29,0.045
		c-0.02,0.003-0.039,0.006-0.059,0.009c-0.097,0.016-0.193,0.031-0.29,0.047c-0.108,0.018-0.215,0.035-0.322,0.054
		c-0.114,0.02-0.227,0.039-0.34,0.059c-0.163,0.029-0.326,0.058-0.487,0.089c-0.134,0.025-0.268,0.05-0.402,0.076
		c-0.093,0.018-0.185,0.036-0.277,0.055c-0.085,0.016-0.169,0.033-0.254,0.051c-0.363,0.074-0.725,0.151-1.085,0.233
		c-0.084,0.019-0.167,0.038-0.25,0.057c-0.108,0.024-0.215,0.049-0.322,0.075c-0.081,0.019-0.161,0.038-0.241,0.058
		c-0.549,0.132-1.092,0.272-1.63,0.42c-0.075,0.021-0.151,0.041-0.226,0.063c-0.273,0.076-0.546,0.154-0.816,0.235
		c-0.089,0.025-0.178,0.052-0.266,0.079c-0.155,0.046-0.31,0.094-0.464,0.142c-0.071,0.022-0.142,0.044-0.213,0.067
		c-0.135,0.042-0.27,0.085-0.403,0.129c-0.144,0.046-0.287,0.093-0.43,0.142c-0.071,0.023-0.142,0.047-0.213,0.071
		c-0.075,0.025-0.15,0.051-0.225,0.077c-0.382,0.131-0.76,0.264-1.134,0.403c-0.201,0.074-0.401,0.149-0.6,0.225
		c-0.211,0.08-0.422,0.162-0.631,0.245c-0.101,0.04-0.202,0.08-0.303,0.121c-0.1,0.04-0.202,0.082-0.302,0.123
		c-0.095,0.038-0.189,0.078-0.284,0.117c-0.305,0.127-0.608,0.256-0.907,0.388c-0.262,0.115-0.522,0.232-0.78,0.349
		c-0.138,0.063-0.276,0.127-0.412,0.191c-0.067,0.031-0.132,0.062-0.198,0.094c-0.104,0.048-0.208,0.098-0.311,0.148
		c-0.14,0.067-0.278,0.134-0.416,0.202s-0.275,0.136-0.412,0.205c-0.3,0.151-0.596,0.304-0.89,0.459
		c-0.108,0.057-0.215,0.115-0.322,0.172c-0.133,0.071-0.265,0.143-0.396,0.215s-0.262,0.144-0.392,0.217
		c-0.139,0.078-0.277,0.157-0.414,0.236c-0.11,0.063-0.22,0.127-0.329,0.191c-0.023,0.014-0.046,0.027-0.069,0.041
		c-0.113,0.066-0.226,0.132-0.337,0.2c-0.117,0.07-0.233,0.14-0.348,0.21c-0.017,0.01-0.033,0.02-0.05,0.03
		c-0.075,0.046-0.15,0.092-0.224,0.138c-0.177,0.109-0.352,0.219-0.526,0.33c-0.105,0.067-0.209,0.134-0.313,0.201
		c-0.013,0.008-0.025,0.016-0.038,0.025c-0.106,0.069-0.211,0.138-0.315,0.207c-0.016,0.01-0.033,0.021-0.048,0.031
		c-0.082,0.054-0.162,0.108-0.243,0.163c-0.041,0.027-0.082,0.055-0.123,0.084c-0.102,0.069-0.203,0.138-0.303,0.208
		c-0.092,0.063-0.183,0.127-0.273,0.191c-0.048,0.033-0.095,0.066-0.142,0.1c-0.09,0.063-0.179,0.127-0.268,0.191
		c-0.112,0.08-0.224,0.162-0.334,0.243c-0.111,0.081-0.221,0.162-0.33,0.244s-0.217,0.164-0.325,0.246
		c-0.107,0.082-0.214,0.164-0.32,0.247c-0.003,0.001-0.005,0.003-0.008,0.006c-0.103,0.08-0.206,0.161-0.307,0.242
		c-0.098,0.078-0.195,0.156-0.292,0.234c-0.022,0.018-0.044,0.036-0.065,0.054c-0.078,0.061-0.154,0.122-0.228,0.187
		c-0.018,0.014-0.036,0.029-0.054,0.044c-0.093,0.078-0.185,0.155-0.277,0.233c-0.099,0.084-0.198,0.168-0.295,0.253
		c-0.049,0.042-0.097,0.085-0.146,0.127c-0.145,0.127-0.288,0.255-0.429,0.382c-0.047,0.042-0.094,0.085-0.14,0.127
		c-0.046,0.043-0.093,0.085-0.139,0.128c-0.074,0.069-0.147,0.137-0.221,0.206c-0.042,0.039-0.085,0.08-0.127,0.119
		c-0.041,0.039-0.082,0.078-0.122,0.117c-0.066,0.063-0.131,0.127-0.196,0.189c-0.092,0.09-0.183,0.18-0.272,0.27
		c-0.043,0.043-0.086,0.086-0.129,0.129c-0.054,0.055-0.107,0.109-0.16,0.163c-0.061,0.062-0.12,0.124-0.179,0.186
		c-0.095,0.1-0.19,0.2-0.283,0.3c-0.053,0.056-0.105,0.113-0.157,0.17c-0.067,0.074-0.134,0.147-0.2,0.221
		c-0.065,0.072-0.129,0.145-0.193,0.217c-0.26,0.296-0.51,0.594-0.748,0.891c-0.053,0.065-0.105,0.131-0.157,0.197
		c-0.059,0.076-0.119,0.153-0.177,0.229c-0.042,0.054-0.084,0.108-0.124,0.163c-0.51,0.679-0.961,1.357-1.348,2.029
		c-0.035,0.061-0.069,0.121-0.103,0.181c-0.048,0.086-0.095,0.172-0.141,0.258c-0.037,0.069-0.073,0.137-0.108,0.206
		c-0.037,0.072-0.074,0.144-0.11,0.215c-0.017,0.033-0.033,0.067-0.049,0.099c-0.035,0.07-0.069,0.14-0.101,0.211
		c-0.046,0.098-0.091,0.195-0.134,0.292c-0.018,0.041-0.037,0.082-0.054,0.123c-0.02,0.044-0.038,0.087-0.056,0.131
		c-0.018-0.092-0.037-0.183-0.057-0.275c-0.011-0.053-0.023-0.106-0.035-0.159c-0.012-0.055-0.024-0.11-0.037-0.165
		c-0.005-0.022-0.01-0.043-0.015-0.065c-0.011-0.046-0.021-0.093-0.035-0.138c-0.012-0.065-0.029-0.13-0.045-0.194
		c-0.016-0.064-0.032-0.128-0.049-0.192c-0.007-0.027-0.014-0.055-0.022-0.082c-0.016-0.059-0.031-0.119-0.048-0.177
		c-0.015-0.056-0.031-0.112-0.047-0.168c-0.005-0.017-0.009-0.035-0.014-0.052c-0.02-0.07-0.04-0.139-0.061-0.208
		c-0.11-0.372-0.229-0.741-0.359-1.105c-0.019-0.054-0.039-0.108-0.059-0.162c-0.012-0.033-0.023-0.066-0.036-0.099
		c-0.021-0.057-0.042-0.114-0.065-0.171c-0.015-0.04-0.03-0.081-0.046-0.121c-0.016-0.044-0.034-0.088-0.051-0.132
		c-0.02-0.05-0.04-0.1-0.06-0.149s-0.039-0.097-0.059-0.146c-0.053-0.128-0.107-0.256-0.163-0.383
		c-0.021-0.05-0.042-0.099-0.065-0.148c-0.074-0.168-0.151-0.335-0.231-0.501c-0.028-0.059-0.056-0.117-0.085-0.176
		c-0.017-0.036-0.035-0.072-0.053-0.108c-0.026-0.054-0.054-0.108-0.08-0.161c-0.012-0.023-0.023-0.046-0.035-0.069
		c-0.033-0.065-0.066-0.129-0.101-0.193c-0.014-0.028-0.029-0.056-0.044-0.085c-0.024-0.046-0.049-0.093-0.074-0.138
		c-0.023-0.044-0.048-0.088-0.072-0.132c-0.027-0.05-0.054-0.101-0.083-0.15c-0.151-0.271-0.309-0.538-0.472-0.803
		c-0.044-0.071-0.088-0.142-0.133-0.213c-0.052-0.081-0.103-0.161-0.155-0.241c-0.026-0.039-0.052-0.08-0.08-0.119
		c-0.027-0.044-0.057-0.087-0.086-0.13c-0.014-0.023-0.029-0.044-0.044-0.067c-0.045-0.065-0.089-0.13-0.134-0.194
		c-0.013-0.02-0.027-0.039-0.04-0.058c-0.052-0.074-0.105-0.149-0.159-0.223c-0.003-0.004-0.005-0.008-0.009-0.013
		c-0.055-0.076-0.11-0.152-0.166-0.228c-0.293-0.395-0.601-0.782-0.924-1.162c-0.055-0.065-0.11-0.129-0.166-0.193
		c-0.144-0.165-0.291-0.329-0.441-0.491c-0.043-0.046-0.086-0.093-0.13-0.139c-0.074-0.078-0.149-0.157-0.224-0.235
		c-0.067-0.069-0.134-0.138-0.202-0.206c-0.067-0.068-0.136-0.136-0.205-0.204c-0.06-0.059-0.12-0.118-0.181-0.176
		c-0.079-0.076-0.159-0.151-0.24-0.227c-0.123-0.115-0.249-0.23-0.375-0.344c-0.023-0.02-0.046-0.041-0.07-0.063
		c-0.069-0.061-0.138-0.121-0.208-0.182c-0.074-0.065-0.149-0.129-0.224-0.193c-0.076-0.064-0.151-0.127-0.228-0.191
		c-0.076-0.063-0.153-0.126-0.23-0.189c-0.002-0.002-0.004-0.003-0.006-0.005c-0.031-0.026-0.063-0.052-0.095-0.077
		c-0.121-0.095-0.243-0.192-0.366-0.286c-0.002-0.001-0.004-0.003-0.007-0.005c-0.072-0.055-0.145-0.11-0.218-0.166
		c-0.097-0.072-0.194-0.145-0.292-0.217c-0.069-0.05-0.138-0.101-0.208-0.15c-0.093-0.067-0.188-0.133-0.283-0.2
		c-0.061-0.042-0.122-0.085-0.183-0.127c-0.104-0.071-0.208-0.142-0.315-0.211c-0.081-0.054-0.162-0.108-0.245-0.161
		c-0.087-0.056-0.174-0.112-0.262-0.168c-0.072-0.046-0.144-0.091-0.217-0.136c-0.194-0.12-0.39-0.238-0.589-0.355
		c-0.091-0.054-0.181-0.106-0.273-0.159c-0.089-0.052-0.18-0.102-0.271-0.153c-0.014-0.008-0.027-0.016-0.042-0.023
		c-0.082-0.046-0.163-0.091-0.245-0.135c-0.096-0.052-0.193-0.104-0.29-0.155c-0.093-0.05-0.186-0.099-0.28-0.147l-0.001-0.001
		c-0.089-0.046-0.179-0.092-0.27-0.138c-0.072-0.037-0.146-0.073-0.219-0.109c-0.046-0.023-0.093-0.046-0.14-0.069
		c-0.016-0.008-0.033-0.016-0.049-0.024c-0.067-0.033-0.134-0.065-0.202-0.097c-0.074-0.036-0.15-0.072-0.226-0.107
		c-0.042-0.02-0.084-0.039-0.127-0.059c-0.19-0.088-0.382-0.175-0.577-0.26c-0.081-0.036-0.163-0.071-0.244-0.106
		c-0.133-0.057-0.267-0.114-0.402-0.17c-0.08-0.033-0.159-0.066-0.24-0.098c-0.422-0.172-0.852-0.337-1.29-0.495
		c-0.048-0.018-0.097-0.035-0.146-0.053c-0.057-0.02-0.115-0.04-0.173-0.061c-0.133-0.047-0.268-0.093-0.403-0.139
		c-0.095-0.033-0.191-0.065-0.288-0.096c-0.143-0.048-0.287-0.094-0.432-0.14c-0.087-0.027-0.176-0.055-0.264-0.082
		c-0.076-0.023-0.152-0.047-0.229-0.07c-0.07-0.022-0.141-0.042-0.211-0.063c-0.084-0.025-0.168-0.05-0.253-0.074
		c-0.116-0.033-0.231-0.067-0.348-0.099c-0.064-0.018-0.129-0.035-0.193-0.053c-0.085-0.023-0.17-0.046-0.255-0.069
		c-0.208-0.056-0.419-0.11-0.631-0.163c-0.106-0.027-0.214-0.054-0.322-0.079c-0.027-0.007-0.055-0.014-0.083-0.02
		c-0.106-0.025-0.211-0.05-0.318-0.075c-0.093-0.022-0.185-0.043-0.279-0.064c-0.065-0.015-0.131-0.029-0.196-0.044
		c-0.176-0.039-0.353-0.077-0.532-0.114c-0.111-0.023-0.223-0.046-0.335-0.068c-0.07-0.015-0.142-0.029-0.212-0.042
		c-0.234-0.046-0.47-0.09-0.707-0.132c-0.094-0.017-0.189-0.034-0.283-0.05c-0.038-0.007-0.076-0.013-0.114-0.02
		c-0.093-0.016-0.186-0.031-0.279-0.047c-0.079-0.013-0.158-0.026-0.238-0.038c-0.085-0.014-0.17-0.027-0.256-0.04
		c-0.118-0.018-0.236-0.037-0.355-0.054c-0.014-0.002-0.027-0.004-0.041-0.006c-0.116-0.017-0.232-0.033-0.35-0.05
		c-0.263-0.037-0.529-0.072-0.796-0.105c-0.074-0.01-0.149-0.018-0.223-0.027c-0.084-0.01-0.168-0.02-0.252-0.029
		c-0.123-0.014-0.247-0.028-0.371-0.042c-0.01-0.001-0.022-0.002-0.032-0.003c-0.117-0.012-0.236-0.025-0.354-0.037
		c-0.091-0.01-0.184-0.019-0.277-0.027c-0.077-0.008-0.155-0.015-0.232-0.022c-0.033-0.003-0.066-0.007-0.099-0.009
		c-0.091-0.008-0.181-0.016-0.272-0.024c-0.146-0.012-0.292-0.024-0.439-0.035c-0.134-0.01-0.269-0.02-0.403-0.03
		c-0.007-0.001-0.015-0.001-0.022-0.001c-0.121-0.008-0.242-0.017-0.363-0.024c-0.075-0.005-0.151-0.01-0.226-0.014
		c-0.104-0.007-0.209-0.012-0.314-0.018c-0.13-0.007-0.26-0.014-0.39-0.02c-0.136-0.007-0.273-0.013-0.41-0.018
		c-0.571-0.024-1.149-0.04-1.735-0.049c-0.101-0.001-0.203-0.003-0.305-0.004h-0.035c-0.084-0.001-0.168-0.002-0.253-0.002
		c-0.127-0.001-0.254-0.001-0.382-0.001c-26.2,0-44.01,15.743-44.01,39.451c0,23.252,16.926,38.268,38.852,38.268
		c0.095,0,0.19-0.001,0.285-0.001s0.19-0.001,0.285-0.003h0.002c0.093-0.001,0.185-0.003,0.278-0.005h0.012
		c0.073-0.001,0.146-0.003,0.22-0.006c0.373-0.01,0.746-0.026,1.12-0.048c0.052-0.003,0.103-0.006,0.155-0.009
		c0.072-0.005,0.144-0.009,0.215-0.014c0.093-0.006,0.186-0.012,0.279-0.02c0.097-0.007,0.195-0.014,0.292-0.023
		c0.191-0.015,0.381-0.032,0.572-0.05c0.068-0.007,0.136-0.013,0.204-0.02c0.075-0.007,0.15-0.015,0.225-0.023
		c0.168-0.018,0.336-0.037,0.504-0.057c0.245-0.029,0.489-0.06,0.734-0.094c0.016-0.002,0.031-0.004,0.047-0.007
		c0.095-0.013,0.19-0.027,0.285-0.04c0.093-0.014,0.187-0.027,0.281-0.042c0.002-0.001,0.005-0.001,0.007-0.001
		c0.094-0.014,0.189-0.029,0.283-0.044c0.095-0.015,0.19-0.031,0.285-0.046c0.19-0.032,0.38-0.065,0.57-0.099
		c0.095-0.018,0.189-0.035,0.285-0.053c0.095-0.018,0.189-0.036,0.284-0.054c0.095-0.019,0.189-0.038,0.284-0.057
		c0.186-0.038,0.372-0.077,0.558-0.117c0.005-0.001,0.011-0.003,0.017-0.004c0.273-0.059,0.546-0.121,0.819-0.186
		c0.101-0.024,0.202-0.049,0.303-0.074c0.094-0.023,0.188-0.046,0.282-0.07c0.01-0.003,0.02-0.005,0.029-0.007
		c0.161-0.041,0.321-0.083,0.482-0.125c0.392-0.104,0.782-0.213,1.171-0.329c0.053-0.015,0.106-0.031,0.158-0.047
		c0.037-0.01,0.073-0.022,0.109-0.033c0.067-0.02,0.134-0.04,0.202-0.061c0.568-0.175,1.134-0.362,1.697-0.56
		c0.078-0.027,0.157-0.055,0.236-0.084c0.157-0.056,0.313-0.114,0.47-0.172c0.091-0.033,0.183-0.068,0.274-0.102
		c0.143-0.054,0.285-0.109,0.427-0.164c0.078-0.03,0.155-0.061,0.233-0.092c0.104-0.041,0.207-0.083,0.311-0.125
		c0.095-0.038,0.191-0.078,0.286-0.117c0.008-0.003,0.016-0.007,0.023-0.01c0.103-0.042,0.206-0.085,0.309-0.129
		c0.308-0.13,0.615-0.264,0.921-0.401c0.102-0.046,0.204-0.091,0.305-0.138c0.084-0.038,0.167-0.076,0.25-0.116
		c0.348-0.162,0.695-0.328,1.04-0.5c0.074-0.037,0.147-0.073,0.22-0.11c0.069-0.035,0.138-0.069,0.207-0.105
		c0.06-0.03,0.119-0.061,0.179-0.091c0.087-0.044,0.174-0.09,0.26-0.135c0.302-0.158,0.602-0.32,0.901-0.486
		c0.076-0.042,0.153-0.084,0.229-0.127c0.076-0.042,0.152-0.085,0.228-0.129c0.051-0.029,0.102-0.058,0.154-0.088
		c0.433-0.248,0.863-0.504,1.288-0.767c0.064-0.039,0.127-0.079,0.191-0.119c0.941-0.589,1.859-1.213,2.751-1.87
		c0.068-0.05,0.135-0.1,0.203-0.15c0.156-0.116,0.311-0.234,0.466-0.352c0.026-0.02,0.052-0.04,0.078-0.06
		c0.069-0.053,0.137-0.106,0.206-0.159c0.059-0.046,0.119-0.093,0.178-0.139c0.066-0.052,0.131-0.104,0.196-0.155
		c0.467-0.373,0.927-0.755,1.378-1.147c0.074-0.063,0.147-0.127,0.219-0.192c0.073-0.064,0.146-0.129,0.218-0.193
		c0.072-0.063,0.143-0.127,0.213-0.192c0.003-0.002,0.005-0.004,0.007-0.006c0.071-0.064,0.142-0.129,0.212-0.193
		c0.215-0.196,0.427-0.396,0.637-0.597c0.051-0.048,0.102-0.097,0.152-0.146c0.2-0.194,0.399-0.39,0.595-0.587
		c0.076-0.076,0.151-0.152,0.225-0.229c0.067-0.068,0.134-0.137,0.2-0.206c0.29-0.3,0.574-0.605,0.853-0.914
		c0.052-0.057,0.103-0.114,0.154-0.171c0.271-0.303,0.538-0.61,0.799-0.921c0.016,0.069,0.032,0.138,0.048,0.208
		c0.011,0.048,0.022,0.095,0.034,0.143c0.013,0.052,0.025,0.105,0.039,0.157c0.003,0.012,0.005,0.023,0.008,0.035
		c0.016,0.063,0.032,0.127,0.048,0.189c0.034,0.129,0.069,0.257,0.104,0.384c0.017,0.061,0.034,0.121,0.052,0.181
		c0.002,0.006,0.003,0.012,0.005,0.018c0.024,0.083,0.048,0.166,0.074,0.248c0.025,0.085,0.052,0.17,0.079,0.255
		c0.03,0.096,0.061,0.192,0.093,0.286c0.024,0.073,0.049,0.146,0.074,0.219c0.021,0.061,0.042,0.121,0.063,0.181
		c0.014,0.04,0.028,0.081,0.043,0.121c0.023,0.066,0.047,0.131,0.072,0.196c0.031,0.083,0.061,0.165,0.093,0.247
		c0.028,0.074,0.057,0.147,0.086,0.221c0.006,0.016,0.012,0.031,0.019,0.046c0.021,0.054,0.043,0.108,0.066,0.162
		c0.012,0.031,0.024,0.061,0.037,0.091c0.029,0.07,0.058,0.14,0.088,0.209c0.035,0.082,0.07,0.164,0.106,0.245
		c0.035,0.078,0.069,0.155,0.105,0.233c0.034,0.074,0.068,0.148,0.103,0.222c0.042,0.089,0.084,0.177,0.127,0.264
		c0.036,0.072,0.072,0.144,0.108,0.216c0.039,0.077,0.078,0.154,0.118,0.23c0.029,0.056,0.058,0.112,0.088,0.168
		c0.097,0.182,0.196,0.362,0.298,0.54c0.037,0.065,0.074,0.13,0.112,0.194c0.035,0.06,0.07,0.119,0.106,0.179
		c0.08,0.133,0.161,0.265,0.244,0.395c0.027,0.044,0.055,0.087,0.083,0.131c0.035,0.055,0.071,0.11,0.107,0.164
		c0.046,0.071,0.093,0.142,0.141,0.211c0.048,0.07,0.096,0.14,0.144,0.21c0.048,0.069,0.097,0.139,0.146,0.208
		c0.037,0.052,0.075,0.104,0.113,0.157c0.022,0.029,0.043,0.059,0.065,0.088c0.04,0.055,0.081,0.11,0.122,0.164
		c0.051,0.067,0.102,0.134,0.154,0.201s0.104,0.132,0.156,0.198c0.007,0.008,0.013,0.016,0.02,0.025
		c0.046,0.057,0.093,0.115,0.14,0.172c0.101,0.123,0.204,0.245,0.308,0.366c0.02,0.024,0.04,0.047,0.06,0.07
		c0.096,0.11,0.193,0.219,0.291,0.326c0.056,0.062,0.113,0.123,0.17,0.184c0.053,0.057,0.106,0.113,0.16,0.168
		c0.062,0.065,0.125,0.13,0.189,0.194c0.059,0.059,0.118,0.118,0.178,0.177c0.059,0.059,0.119,0.117,0.18,0.175
		c0.115,0.11,0.231,0.218,0.348,0.325c0.194,0.176,0.392,0.348,0.594,0.516c0.061,0.051,0.123,0.102,0.185,0.152
		c0.063,0.051,0.125,0.101,0.188,0.151c0.006,0.005,0.012,0.009,0.018,0.014c0.063,0.049,0.125,0.097,0.189,0.146
		c0.064,0.05,0.129,0.098,0.193,0.147c0.082,0.061,0.164,0.121,0.248,0.181c0.055,0.039,0.11,0.078,0.166,0.117
		c0.069,0.048,0.137,0.096,0.206,0.143c0.062,0.042,0.124,0.084,0.187,0.125c0.007,0.005,0.014,0.01,0.022,0.014
		c0.07,0.046,0.14,0.092,0.211,0.137c0.07,0.045,0.142,0.09,0.213,0.134c0.143,0.089,0.287,0.175,0.432,0.26
		c0.073,0.042,0.146,0.084,0.219,0.125c0.167,0.094,0.335,0.185,0.506,0.274c0.001,0.001,0.003,0.002,0.004,0.002
		c0.083,0.043,0.166,0.086,0.25,0.128c0.146,0.073,0.292,0.144,0.44,0.213c0.043,0.021,0.087,0.041,0.131,0.061
		c0.082,0.038,0.164,0.075,0.247,0.111c0.08,0.035,0.162,0.07,0.243,0.104c0.001,0.001,0.001,0.001,0.001,0.001
		c0.074,0.032,0.149,0.063,0.225,0.093c0.007,0.003,0.014,0.006,0.022,0.008c0.039,0.016,0.078,0.031,0.117,0.046
		c0.072,0.029,0.144,0.057,0.217,0.085c0.079,0.03,0.158,0.06,0.238,0.089c0.084,0.031,0.169,0.061,0.254,0.091
		c0.017,0.006,0.035,0.012,0.052,0.018c0.082,0.028,0.165,0.056,0.248,0.084c0.005,0.001,0.01,0.003,0.016,0.005
		c0.09,0.029,0.18,0.058,0.271,0.086c0.094,0.029,0.189,0.058,0.285,0.086c0.095,0.028,0.191,0.055,0.287,0.082
		c0.096,0.027,0.193,0.053,0.289,0.078s0.194,0.05,0.292,0.073c0.089,0.022,0.178,0.042,0.268,0.063
		c0.012,0.003,0.025,0.006,0.037,0.008c0.087,0.02,0.175,0.039,0.262,0.057c0.01,0.002,0.02,0.004,0.03,0.006
		c0.058,0.011,0.116,0.025,0.175,0.033c0.092,0.021,0.184,0.038,0.276,0.054c0.111,0.021,0.223,0.04,0.335,0.058
		c0.005,0.001,0.01,0.002,0.015,0.003c0.055,0.009,0.111,0.018,0.166,0.027c0.041,0.007,0.082,0.012,0.124,0.018
		c0.041,0.007,0.082,0.012,0.124,0.018c0.077,0.011,0.154,0.022,0.232,0.031c0.05,0.007,0.1,0.012,0.15,0.018
		c0.164,0.02,0.329,0.038,0.495,0.054c0.034,0.003,0.069,0.007,0.103,0.009c0.052,0.005,0.104,0.01,0.157,0.014
		c0.048,0.004,0.096,0.008,0.144,0.011c0.161,0.012,0.323,0.023,0.486,0.031c0.048,0.003,0.097,0.005,0.146,0.007
		c0.095,0.005,0.19,0.008,0.286,0.011c0.091,0.003,0.183,0.005,0.275,0.006c0.016,0.001,0.033,0.001,0.049,0.001
		c0.099,0.002,0.198,0.003,0.297,0.003c0.084,0,0.168-0.001,0.251-0.001c0.084-0.001,0.168-0.002,0.251-0.004
		c0.037-0.001,0.074-0.001,0.111-0.003c0.068-0.001,0.136-0.003,0.204-0.006c0.09-0.003,0.18-0.007,0.271-0.01
		c0.076-0.003,0.152-0.007,0.228-0.011c0.061-0.003,0.121-0.007,0.181-0.01c0.075-0.005,0.149-0.009,0.224-0.015
		c0.022-0.001,0.044-0.003,0.066-0.005c0.058-0.004,0.117-0.008,0.176-0.014c0.072-0.005,0.143-0.011,0.215-0.018
		c0.084-0.008,0.167-0.016,0.251-0.024c0.001,0.001,0.002,0,0.002,0c0.089-0.008,0.177-0.018,0.265-0.028
		c0.077-0.008,0.154-0.018,0.23-0.027c0.199-0.024,0.397-0.05,0.595-0.08c0.077-0.011,0.153-0.022,0.23-0.035
		c0.083-0.013,0.166-0.026,0.248-0.04c0.015-0.002,0.029-0.005,0.043-0.007c0.069-0.012,0.138-0.023,0.206-0.036
		c0.108-0.02,0.217-0.039,0.324-0.061c0.073-0.014,0.146-0.029,0.219-0.044c0.086-0.018,0.172-0.035,0.258-0.054
		c0.086-0.018,0.172-0.037,0.257-0.057c0.256-0.058,0.512-0.121,0.765-0.188c0.181-0.047,0.36-0.097,0.539-0.149
		c0.072-0.022,0.145-0.042,0.217-0.065c0.073-0.022,0.146-0.044,0.219-0.067c0.227-0.07,0.453-0.144,0.677-0.223
		c0.048-0.016,0.097-0.033,0.144-0.05c0.067-0.023,0.134-0.048,0.201-0.072c0.082-0.03,0.164-0.06,0.245-0.091
		c0.091-0.035,0.182-0.069,0.273-0.104c0.028-0.01,0.055-0.022,0.083-0.033c0.087-0.035,0.173-0.069,0.259-0.104
		c0.102-0.042,0.204-0.084,0.305-0.127c0.097-0.041,0.193-0.083,0.289-0.125c0.014-0.006,0.027-0.012,0.04-0.018
		c0.088-0.039,0.176-0.079,0.264-0.119c0.102-0.046,0.204-0.093,0.305-0.142c0.03-0.014,0.059-0.028,0.089-0.043
		c0.07-0.033,0.139-0.067,0.208-0.101c0.007-0.003,0.012-0.006,0.019-0.009c0.092-0.046,0.183-0.091,0.274-0.138
		c0.004-0.001,0.008-0.003,0.012-0.006c0.097-0.05,0.194-0.101,0.292-0.152c0.093-0.049,0.186-0.099,0.279-0.15
		c0.009-0.005,0.018-0.009,0.027-0.015c0.093-0.05,0.185-0.102,0.277-0.154s0.183-0.104,0.274-0.157
		c0.069-0.04,0.138-0.081,0.207-0.122c0.047-0.028,0.094-0.056,0.141-0.085c0.08-0.048,0.159-0.097,0.238-0.146
		c0.084-0.052,0.168-0.104,0.251-0.158c0.256-0.164,0.51-0.333,0.762-0.507c0.067-0.046,0.134-0.093,0.201-0.14
		c0.653-0.461,1.288-0.957,1.906-1.487c0.09-0.077,0.179-0.155,0.268-0.234c0.08-0.07,0.16-0.142,0.24-0.214
		c0.11-0.1,0.221-0.201,0.33-0.303c0.088-0.082,0.176-0.165,0.264-0.249c0.078-0.075,0.156-0.151,0.234-0.226
		c0.025-0.025,0.051-0.05,0.077-0.076c0.074-0.073,0.147-0.147,0.22-0.221c0.006-0.006,0.012-0.011,0.017-0.017
		c0.075-0.076,0.149-0.152,0.223-0.228c0.026-0.027,0.053-0.054,0.078-0.082c0.07-0.074,0.141-0.147,0.21-0.222
		c0.08-0.085,0.159-0.17,0.238-0.257c0.052-0.056,0.102-0.112,0.153-0.168c0.121-0.135,0.242-0.272,0.362-0.41
		c0.042-0.049,0.085-0.098,0.127-0.147c0.035-0.041,0.07-0.082,0.106-0.124c0.053-0.063,0.106-0.125,0.158-0.189
		c0.053-0.063,0.105-0.127,0.157-0.191c0.067-0.081,0.132-0.162,0.198-0.244c0.084-0.105,0.168-0.211,0.251-0.318
		c0.311-0.399,0.614-0.809,0.91-1.229c0.048-0.069,0.097-0.138,0.145-0.208c0.054-0.078,0.108-0.156,0.161-0.235
		c0.042-0.062,0.084-0.124,0.125-0.186c0.052-0.078,0.104-0.156,0.155-0.234c0.035-0.053,0.07-0.106,0.105-0.16
		c0.108-0.166,0.214-0.333,0.319-0.502c0.038-0.061,0.077-0.123,0.116-0.186c0.045-0.073,0.091-0.147,0.135-0.221
		c0.907-1.497,1.729-3.11,2.457-4.831c0.032-0.074,0.063-0.149,0.094-0.224v0.025c0,10.038,8.137,18.175,18.175,18.175
		c1.037,0,2.054-0.087,3.043-0.254c9.02-1.52,18.144-2.347,27.291-2.264c3.182,0.029,6.334,0.071,9.332,0.132h0.016
		c2.491,0.019,4.852,0.091,7.046,0.189c4.233,0.188,7.842,0.474,10.55,0.66c0.001,0.001,0.003,0.001,0.004,0.001
		c1.561,0.108,2.822,0.182,3.732,0.186h0.072c0.09,0,0.174-0.005,0.253-0.016c0.689-0.097,0.93-0.696,0.93-3.076
		c0-2.583-0.284-2.933-1.117-3.212c-0.022-0.007-0.043-0.014-0.065-0.022l-3.975-1.04c-1.468-0.442-1.767-0.584-1.767-2.052V76.498
		c0.741-0.299,2.208-0.441,3.234-0.441c9.873,0,13.107,4.858,13.107,18.536V123.6c0,1.468-0.299,1.61-1.767,2.052l-3.975,1.04
		c-0.884,0.285-1.182,0.584-1.182,3.234s0.299,3.092,1.182,3.092c3.391,0,12.067-1.04,22.81-1.04c10.742,0,20.317,1.04,23.707,1.04
		c0.884,0,1.169-0.442,1.169-3.092C404.791,127.276,404.506,126.834,403.622,126.692z M190.309,74.133
		c0-8.819,4.56-12.951,9.133-12.951c4.117,0,6.468,2.95,6.468,8.535c0,7.508-3.091,12.366-9.859,13.107l-4.716,0.584
		C190.751,80.317,190.309,77.083,190.309,74.133z M259.185,88.582c-0.14,0.038-0.279,0.076-0.419,0.114
		c-0.501,0.136-1.002,0.275-1.502,0.417c-0.148,0.042-0.296,0.084-0.444,0.127c-0.162,0.046-0.324,0.092-0.486,0.139
		c-0.485,0.14-0.97,0.283-1.453,0.427c-0.559,0.166-1.116,0.336-1.673,0.51c-0.108,0.033-0.215,0.067-0.323,0.101
		c-0.208,0.065-0.416,0.131-0.623,0.196c-0.323,0.102-0.646,0.207-0.968,0.312c-3.874,1.265-7.735,2.534-11.213,4.537
		c-1.74,1.002-3.384,2.188-4.886,3.649c-1.565,1.522-2.94,3.241-4.064,5.113c-1.572,2.618-3.785,4.876-6.467,6.337
		c-0.147,0.08-0.294,0.157-0.44,0.231c-0.055,0.028-0.111,0.056-0.166,0.082c-0.094,0.047-0.188,0.092-0.282,0.135
		c-0.067,0.032-0.134,0.063-0.201,0.092c-0.007,0.004-0.013,0.007-0.02,0.009c-0.057,0.026-0.116,0.052-0.173,0.076
		c-0.023,0.01-0.048,0.021-0.072,0.031c-0.038,0.017-0.076,0.033-0.114,0.048c-0.051,0.022-0.102,0.042-0.153,0.063
		c-0.019,0.008-0.038,0.015-0.057,0.022c-0.056,0.023-0.113,0.045-0.169,0.067c-0.025,0.01-0.05,0.02-0.075,0.029
		c-0.048,0.018-0.095,0.037-0.143,0.054c-0.035,0.013-0.069,0.025-0.103,0.037c-0.07,0.026-0.142,0.051-0.212,0.075
		c-0.071,0.024-0.142,0.048-0.213,0.071c-0.062,0.02-0.125,0.04-0.187,0.059c-0.095,0.03-0.191,0.059-0.286,0.086
		c-0.057,0.016-0.114,0.033-0.17,0.048c-0.181,0.05-0.361,0.097-0.542,0.138c-0.138,0.033-0.277,0.063-0.416,0.091
		c-0.037,0.008-0.074,0.015-0.111,0.022c-0.042,0.008-0.084,0.016-0.127,0.024c-0.059,0.012-0.118,0.022-0.178,0.032
		c-0.06,0.01-0.12,0.021-0.18,0.03c-0.013,0.003-0.026,0.005-0.04,0.007c-0.057,0.009-0.115,0.018-0.172,0.026
		c-0.01,0.001-0.021,0.003-0.032,0.005c-0.067,0.009-0.133,0.018-0.2,0.027c-0.056,0.007-0.112,0.014-0.169,0.021
		c-0.025,0.003-0.052,0.006-0.078,0.008c-0.039,0.005-0.078,0.009-0.118,0.013c-0.046,0.005-0.093,0.009-0.14,0.013
		c-0.016,0.002-0.032,0.004-0.048,0.005c-0.054,0.005-0.107,0.01-0.161,0.014c-0.088,0.007-0.176,0.013-0.265,0.018
		c-0.067,0.005-0.134,0.008-0.202,0.01c-0.046,0.003-0.093,0.005-0.14,0.006c-0.042,0.002-0.084,0.003-0.127,0.005
		c-0.065,0.002-0.13,0.003-0.195,0.004c-0.074,0.001-0.147,0.002-0.221,0.002c-1.239,0-2.468-0.154-3.675-0.439
		c-0.154-0.036-0.307-0.074-0.46-0.114c-1.438-0.38-2.843-0.942-4.193-1.645c-0.159-0.083-0.317-0.168-0.474-0.254
		c-0.107-0.059-0.214-0.119-0.32-0.18c-0.128-0.072-0.255-0.147-0.382-0.222c-0.106-0.064-0.213-0.128-0.319-0.194
		c-0.125-0.076-0.248-0.154-0.371-0.232c-0.533-0.341-1.054-0.702-1.563-1.081c-0.29-0.217-0.577-0.439-0.859-0.666
		c-0.001,0-0.001-0.001-0.001-0.001c-0.282-0.227-0.56-0.46-0.833-0.698c-0.547-0.476-1.075-0.97-1.583-1.479
		c-4.132-4.118-8.107-11.184-10.315-18.536c4.931,0.151,10.201,0.213,15.468,0.204c0.298-0.001,0.595-0.001,0.892-0.003
		c0.123,0,0.247-0.001,0.371-0.001c0.3-0.001,0.6-0.003,0.899-0.004c0.45-0.002,0.899-0.005,1.348-0.008
		c0.299-0.003,0.598-0.005,0.896-0.008c0.854-0.007,1.704-0.017,2.55-0.028c0.463-0.006,0.924-0.012,1.384-0.02
		c0.023-0.001,0.047-0.001,0.07-0.001c0.283-0.005,0.566-0.009,0.848-0.014c0.305-0.005,0.61-0.01,0.914-0.016
		c0.29-0.006,0.58-0.011,0.869-0.017c0.726-0.014,1.446-0.029,2.159-0.046c0.155-0.004,0.309-0.007,0.463-0.011
		c0.155-0.003,0.309-0.007,0.462-0.011c0.149-0.004,0.298-0.008,0.446-0.011c0.176-0.005,0.352-0.009,0.527-0.014
		c0.257-0.007,0.513-0.014,0.768-0.021c0.483-0.014,0.962-0.027,1.437-0.042c0.253-0.008,0.504-0.016,0.754-0.023
		c1.079-0.034,2.136-0.07,3.169-0.11c0.141-0.005,0.282-0.01,0.423-0.016c0.14-0.005,0.281-0.01,0.42-0.016
		c0.065-0.003,0.129-0.005,0.194-0.008c0.214-0.008,0.426-0.017,0.638-0.026c1.376-0.057,2.701-0.118,3.966-0.183
		c0.989,0,1.669-0.536,1.707-1.248c0.166-0.048-0.091,0.008,0.076-0.04c1.543,2.512,4.487,3.796,7.571,3.796
		c0.106,0,0.211-0.001,0.315-0.003c0.023,0,0.047-0.001,0.07-0.001c0.064-0.001,0.128-0.003,0.192-0.005
		c0.038-0.001,0.076-0.002,0.114-0.003s0.078-0.003,0.116-0.005c0.053-0.002,0.106-0.005,0.159-0.007
		c0.06-0.003,0.12-0.006,0.18-0.01c0.069-0.004,0.137-0.008,0.206-0.013c0.046-0.003,0.091-0.007,0.137-0.01
		c0.176-0.014,0.351-0.029,0.525-0.048c0.047-0.005,0.094-0.01,0.141-0.015c0.037-0.005,0.073-0.008,0.11-0.013
		c0.061-0.007,0.122-0.015,0.183-0.023c0.61-0.08,1.205-0.191,1.785-0.333c0.04-0.01,0.081-0.02,0.121-0.03
		c0.034-0.008,0.068-0.017,0.101-0.026c0.069-0.018,0.138-0.036,0.207-0.055c0.051-0.014,0.102-0.028,0.153-0.042
		c0.043-0.012,0.085-0.025,0.128-0.037c0.04-0.012,0.08-0.024,0.12-0.037c0.07-0.021,0.139-0.042,0.208-0.065
		c0.052-0.016,0.104-0.033,0.157-0.051c0.056-0.018,0.112-0.037,0.167-0.057c0.042-0.014,0.085-0.029,0.128-0.045
		c0.043-0.015,0.086-0.031,0.129-0.047c0.538-0.197,1.061-0.425,1.566-0.685c0.055-0.027,0.109-0.056,0.163-0.085
		c0.053-0.028,0.106-0.056,0.159-0.085c0.003-0.001,0.005-0.003,0.007-0.004c0.039-0.022,0.078-0.043,0.116-0.065
		c0.037-0.02,0.073-0.041,0.11-0.062c0.04-0.023,0.081-0.046,0.121-0.07c0.042-0.025,0.085-0.05,0.127-0.076
		c0.037-0.022,0.074-0.044,0.111-0.067c0.029-0.018,0.059-0.036,0.087-0.054c0.253-0.157,0.501-0.323,0.743-0.498
		c0.044-0.031,0.087-0.063,0.13-0.095c0.149-0.109,0.296-0.222,0.44-0.339c0.046-0.037,0.091-0.074,0.137-0.112
		c0.007-0.005,0.014-0.011,0.02-0.017c0.043-0.035,0.086-0.071,0.129-0.108c0.048-0.04,0.095-0.08,0.141-0.121
		c0.047-0.041,0.093-0.082,0.14-0.124c0.042-0.037,0.082-0.074,0.123-0.112c0.009-0.008,0.018-0.016,0.026-0.024
		c0.042-0.038,0.084-0.078,0.126-0.118c0.045-0.042,0.09-0.085,0.134-0.129c0.001-0.001,0.002-0.001,0.002-0.002
		c0.039-0.037,0.076-0.075,0.115-0.113c0.121-0.12,0.239-0.242,0.356-0.367c0.048-0.052,0.097-0.104,0.145-0.157
		c0.075-0.083,0.15-0.168,0.223-0.253c0.05-0.057,0.099-0.114,0.147-0.172c0.05-0.059,0.099-0.118,0.147-0.178
		c0.014-0.018,0.029-0.035,0.042-0.052c0.052-0.064,0.103-0.129,0.153-0.194c0.049-0.063,0.097-0.125,0.145-0.189
		c0.018-0.023,0.036-0.047,0.053-0.071c0.037-0.049,0.073-0.099,0.109-0.149c0.072-0.098,0.142-0.197,0.21-0.298
		c0.035-0.05,0.07-0.101,0.104-0.152c0.074-0.109,0.146-0.22,0.218-0.333c0.027-0.042,0.053-0.084,0.08-0.127
		c0.025-0.039,0.049-0.079,0.073-0.119c0.093-0.15,0.183-0.303,0.271-0.459c0.04-0.07,0.08-0.141,0.119-0.212
		c0.039-0.07,0.078-0.142,0.116-0.213c0.019-0.035,0.038-0.07,0.056-0.106c0.072-0.136,0.142-0.275,0.211-0.415
		c0.021-0.042,0.042-0.085,0.063-0.129c0.066-0.136,0.13-0.274,0.193-0.414c0.019-0.042,0.039-0.085,0.057-0.127
		c0.033-0.075,0.067-0.15,0.099-0.226c0.035-0.081,0.069-0.162,0.102-0.244c0.046-0.109,0.089-0.219,0.133-0.33
		c0.038-0.096,0.074-0.192,0.111-0.289c0.001-0.003,0.002-0.005,0.003-0.008c0.027-0.074,0.055-0.15,0.082-0.226
		c0.018-0.046,0.034-0.093,0.05-0.14c0.025-0.07,0.049-0.14,0.074-0.21c0.004-0.013,0.008-0.027,0.013-0.04
		c0.033-0.095,0.064-0.191,0.095-0.286c0.001-0.004,0.003-0.008,0.004-0.012c0.032-0.099,0.064-0.199,0.095-0.3
		c0.033-0.104,0.064-0.209,0.095-0.316c0.002-0.005,0.004-0.011,0.005-0.017c0.025-0.088,0.052-0.178,0.076-0.267
		c0.036-0.127,0.07-0.255,0.104-0.384c0.027-0.101,0.053-0.204,0.078-0.306c0.234-0.936,0.424-1.927,0.569-2.972l1.026-7.066
		c0.299-1.909,0.883-2.351,2.365-2.351c5.585,0,8.819,6.468,8.819,17.068v4.716c-0.493,0.109-0.986,0.219-1.479,0.33
		c-0.021,0.005-0.042,0.009-0.063,0.014c-0.307,0.069-0.615,0.138-0.922,0.208c-0.354,0.08-0.709,0.161-1.062,0.243
		c-0.251,0.058-0.501,0.116-0.752,0.174c-0.098,0.023-0.196,0.046-0.294,0.069c-0.282,0.066-0.563,0.132-0.844,0.198
		c-0.328,0.078-0.656,0.155-0.983,0.234c-0.328,0.078-0.655,0.158-0.982,0.238c-0.308,0.075-0.615,0.151-0.922,0.226
		c-0.059,0.015-0.118,0.029-0.177,0.044c-0.264,0.066-0.529,0.132-0.793,0.198c-0.35,0.089-0.699,0.177-1.048,0.268
		c-0.163,0.042-0.326,0.084-0.489,0.127c-0.206,0.054-0.411,0.107-0.617,0.161c-0.12,0.031-0.24,0.063-0.36,0.095
		C259.881,88.394,259.533,88.487,259.185,88.582z M272.988,113.442c-0.067,0.069-0.142,0.142-0.226,0.215
		c-0.016,0.014-0.033,0.029-0.051,0.043c-0.167,0.14-0.369,0.281-0.617,0.403c-0.02,0.01-0.04,0.02-0.061,0.029
		c-0.021,0.01-0.042,0.02-0.063,0.029c-0.025,0.011-0.05,0.022-0.076,0.032c-0.028,0.011-0.056,0.022-0.085,0.033
		c-0.068,0.025-0.138,0.049-0.211,0.07c-0.024,0.008-0.048,0.015-0.073,0.022c-0.001,0.001-0.003,0.001-0.005,0.001
		c-0.032,0.009-0.065,0.018-0.098,0.025c-0.029,0.008-0.059,0.014-0.089,0.021c-0.07,0.016-0.143,0.03-0.219,0.042
		c-0.024,0.004-0.048,0.008-0.073,0.011c-0.008,0.002-0.018,0.003-0.027,0.005c-0.022,0.003-0.044,0.006-0.067,0.008
		c-0.024,0.003-0.048,0.006-0.073,0.008c-0.008,0.001-0.018,0.002-0.027,0.003c-0.033,0.003-0.067,0.007-0.1,0.009
		c-0.005,0.001-0.01,0.001-0.016,0.001c-0.03,0.002-0.06,0.004-0.091,0.006c-0.054,0.003-0.108,0.005-0.164,0.007
		c-0.045,0.001-0.091,0.002-0.137,0.002c-4.844,0-10.443-7.209-10.443-15.458c0-4.417,1.325-6.183,4.274-6.183
		c1.468,0,3.818,0.883,5.728,2.806c0.112,0.112,0.223,0.227,0.332,0.345c0.038,0.041,0.076,0.082,0.112,0.123
		c0.038,0.04,0.074,0.082,0.109,0.123c0.046,0.052,0.091,0.104,0.136,0.157c0.009,0.01,0.018,0.021,0.026,0.031
		c0.037,0.043,0.072,0.086,0.107,0.13c0.027,0.033,0.053,0.066,0.08,0.099c0.038,0.046,0.074,0.093,0.11,0.141
		c0.005,0.005,0.008,0.01,0.012,0.015c0.05,0.065,0.1,0.131,0.149,0.198c0.003,0.003,0.005,0.005,0.006,0.008
		c0.05,0.069,0.1,0.139,0.149,0.209c0.032,0.046,0.063,0.092,0.094,0.138c0.005,0.006,0.009,0.012,0.012,0.019
		c0.03,0.044,0.059,0.089,0.089,0.134c0.061,0.094,0.121,0.19,0.178,0.287c0.005,0.007,0.008,0.013,0.012,0.02
		c0.027,0.046,0.054,0.091,0.08,0.138c0.031,0.054,0.062,0.108,0.092,0.163c0.033,0.059,0.065,0.119,0.096,0.179
		c0.014,0.027,0.029,0.055,0.042,0.084c0.018,0.035,0.036,0.07,0.053,0.105c0.014,0.026,0.027,0.053,0.039,0.08
		c0.029,0.059,0.057,0.119,0.085,0.179c0.053,0.116,0.104,0.233,0.153,0.352c0.022,0.054,0.044,0.11,0.066,0.164
		c0.002,0.006,0.005,0.012,0.007,0.018c0.021,0.054,0.041,0.108,0.061,0.162c0.018,0.048,0.035,0.096,0.052,0.145
		c0.008,0.025,0.017,0.049,0.025,0.073c0.01,0.03,0.021,0.06,0.03,0.09c0.009,0.027,0.018,0.055,0.027,0.082
		c0.02,0.061,0.038,0.121,0.056,0.183c0.012,0.041,0.024,0.083,0.036,0.125c0.039,0.136,0.074,0.273,0.106,0.412
		c0.01,0.04,0.019,0.08,0.027,0.12c0.008,0.037,0.017,0.075,0.024,0.114c0.008,0.038,0.017,0.078,0.024,0.117
		c0.002,0.009,0.004,0.019,0.006,0.028c0.012,0.06,0.023,0.121,0.033,0.182c0.001,0.005,0.002,0.009,0.003,0.014
		c0.01,0.061,0.021,0.123,0.03,0.184c0.009,0.055,0.017,0.112,0.025,0.168c0.01,0.068,0.018,0.136,0.026,0.206
		c0.004,0.032,0.008,0.064,0.01,0.096c0.006,0.05,0.011,0.099,0.016,0.149c0.006,0.058,0.011,0.116,0.016,0.175
		c0.006,0.081,0.012,0.162,0.016,0.244c0.003,0.063,0.007,0.127,0.009,0.191c0.003,0.082,0.005,0.164,0.007,0.247
		c0.001,0.068,0.002,0.136,0.002,0.205v10.459H272.988z M312.511,122.14c0,1.965-1.541,3.615-3.505,3.677
		c-0.042,0.001-0.084,0.002-0.125,0.002c-0.258,0-0.51-0.025-0.754-0.074c-0.441-0.087-0.848-0.255-1.21-0.484
		c-1.037-0.658-1.7-1.829-1.7-3.115V81.937c0.143,0.072,0.313,0.114,0.513,0.146l5.015,0.884c1.468,0.3,1.767,0.442,1.767,1.923
		v37.25H312.511z"/>
	<path d="M114.064,109.752c-3.676,3.091-6.767,4.716-11.042,4.716c-4.701,0-7.65-1.325-12.067-5.742
		c-8.834-8.834-15.459-26.044-15.459-38.852c0-5.599,2.208-7.808,5.3-7.808c3.234,0,5.3,1.767,10.742,12.067
		c4.274,8.107,9.132,12.224,15.758,12.224c6.624,0,11.041-4.417,11.041-10.158c0-9.716-10.457-19.576-29.149-19.576
		c-26.059,0-45.335,15.9-45.335,39.451c0,22.952,15.9,38.268,37.826,38.268c18.251,0,32.241-10.457,36.801-21.499
		C119.065,111.376,115.389,108.726,114.064,109.752z"/>
	<path d="M162.286,126.431l-5-1.04c-1.468-0.285-1.767-0.584-1.767-2.052V51.205c0-18.094,1.169-23.542,1.169-26.035
		c0-1.04-2.792-2.208-3.818-2.208c-0.442,0-0.741,0.142-1.182,0.441c-11.768,8.093-24.876,15.601-36.943,20.303
		c-0.884,0.299-1.168,0.598-1.168,2.792c0,2.365,0.285,2.664,1.168,2.807l5.015,0.883c1.467,0.285,1.767,0.442,1.767,1.909v71.241
		c0,1.468-0.3,1.767-1.767,2.052l-5.015,1.04c-0.884,0.142-1.168,0.584-1.168,3.234c0,2.65,0.285,3.092,1.168,3.092
		c3.391,0,13.107-1.04,23.85-1.04c10.742,0,20.317,1.04,23.693,1.04c0.884,0,1.182-0.442,1.182-3.092
		C163.469,127.015,163.17,126.573,162.286,126.431z"/>
</g>
</svg>
