<?xml version="1.0" encoding="utf-8"?>
<!-- Generator: Adobe Illustrator 24.0.1, SVG Export Plug-In . SVG Version: 6.00 Build 0)  -->
<svg version="1.1" id="Layer_1" xmlns="http://www.w3.org/2000/svg" xmlns:xlink="http://www.w3.org/1999/xlink" x="0px" y="0px"
	 viewBox="0 0 146.9 43.3" style="enable-background:new 0 0 146.9 43.3;" xml:space="preserve">
<style type="text/css">
	.st0{fill-rule:evenodd;clip-rule:evenodd;fill:#231F20;}
</style>
<g transform="translate(.661 .434)">
	<path class="st0" d="M50.4,24.2c0,7.4,3.8,13.4,10.3,13.4c6.6,0,10.3-6,10.3-13.6c0-6.9-3.5-13.4-10.3-13.4
		C54,10.5,50.4,16.6,50.4,24.2 M78.2,23.6c0,12.3-7.6,19.3-17.8,19.3c-10.5,0-17.1-7.9-17.1-18.6c0-11.2,7.2-19.2,17.7-19.2
		C71.8,5.1,78.2,13.2,78.2,23.6 M89.9,36.7h8.7c1.8,0,3.3-0.5,4.3-1.4c1.1-0.9,1.6-2.2,1.6-3.8c0-1.5-0.5-2.8-1.6-3.8
		c-1.1-1-2.5-1.5-4.3-1.5h-8.7V36.7z M89.9,21h8.2c1.7,0,3-0.5,4-1.5c1-1,1.5-2.2,1.5-3.7c0-1.7-0.6-2.9-1.7-3.7
		c-1.1-0.8-2.4-1.2-3.9-1.2h-8V21z M83.6,42.2V5.7h14.5c2.4,0,4.5,0.2,6.1,0.7c1.6,0.5,3,1.5,4.2,3.1c1.2,1.6,1.8,3.5,1.8,5.6
		c0,2-0.6,3.8-1.8,5.3c-1.2,1.5-2.8,2.4-5,2.8c2.6,0.4,4.6,1.5,5.9,3.1c1.3,1.6,2,3.6,2,5.8c0,2.8-0.9,5.2-2.8,7.1
		c-1.9,1.9-4.8,2.9-8.7,2.9H83.6z M136.8,42.2h-21V5.7h20.8v5.4h-14.1V21h10.7v5.3h-10.7v10.2h14.3V42.2z M-0.7,5.6h9.2l10.3,28.7
		h0.1l10-28.7H38v36.6h-6.2V14h-0.1L21.4,42.3H16L5.7,14H5.5v28.3h-6.2V5.6z M143.4,8.2c0.2,0,0.3,0,0.4-0.1c0.1,0,0.2-0.2,0.2-0.4
		c0-0.1,0-0.2-0.1-0.2c0,0-0.1-0.1-0.2-0.1c-0.1,0-0.1,0-0.2-0.1c-0.1,0-0.2,0-0.2,0h-0.5v0.8H143.4z M143.4,6.9
		c0.4,0,0.7,0.1,0.9,0.2c0.2,0.1,0.3,0.4,0.3,0.7c0,0.1,0,0.3-0.1,0.4c0,0.1-0.1,0.2-0.2,0.2c-0.1,0.1-0.2,0.1-0.3,0.1
		c-0.1,0-0.2,0.1-0.3,0.1l0.8,1.4H144l-0.8-1.3h-0.4V10h-0.6V6.9H143.4z M141.4,9.3c0.1,0.3,0.3,0.5,0.5,0.7
		c0.2,0.2,0.4,0.3,0.7,0.5c0.3,0.1,0.5,0.2,0.8,0.2c0.3,0,0.6-0.1,0.8-0.2c0.3-0.1,0.5-0.3,0.7-0.5c0.2-0.2,0.3-0.4,0.5-0.7
		c0.1-0.3,0.2-0.6,0.2-0.9c0-0.3-0.1-0.6-0.2-0.9c-0.1-0.3-0.3-0.5-0.5-0.7c-0.2-0.2-0.4-0.3-0.7-0.5c-0.3-0.1-0.5-0.2-0.8-0.2
		c-0.3,0-0.6,0.1-0.8,0.2c-0.3,0.1-0.5,0.3-0.7,0.5c-0.2,0.2-0.3,0.4-0.5,0.7c-0.1,0.3-0.2,0.6-0.2,0.9C141.2,8.8,141.3,9,141.4,9.3
		z M140.7,7.3c0.2-0.3,0.4-0.6,0.6-0.9c0.3-0.2,0.6-0.4,0.9-0.6c0.4-0.1,0.7-0.2,1.1-0.2c0.4,0,0.7,0.1,1.1,0.2
		c0.4,0.1,0.7,0.3,0.9,0.6c0.3,0.2,0.5,0.5,0.6,0.9c0.2,0.3,0.2,0.7,0.2,1.1c0,0.4-0.1,0.8-0.2,1.2c-0.2,0.3-0.4,0.6-0.6,0.9
		c-0.3,0.2-0.6,0.4-0.9,0.6c-0.4,0.1-0.7,0.2-1.1,0.2c-0.4,0-0.7-0.1-1.1-0.2c-0.4-0.1-0.7-0.3-0.9-0.6c-0.3-0.2-0.5-0.5-0.6-0.9
		c-0.2-0.3-0.2-0.7-0.2-1.2C140.5,8,140.5,7.6,140.7,7.3z"/>
	<polygon class="st0" points="119.4,2.6 133.2,2.6 133.2,-0.4 119.4,-0.4 	"/>
</g>
</svg>
