<svg width="146" height="121" viewBox="0 0 146 121" fill="none" xmlns="http://www.w3.org/2000/svg">
<path d="M32.2002 45.7846L31.3349 45.9272C29.4561 46.2185 28.4011 47.3775 26.955 51.2883L16.5593 78.9495H16.0792L5.00199 50.0342C3.99443 47.3299 3.12318 46.272 1.53479 46.0283L0.236816 45.8321V45.2556C1.14955 45.2556 3.99443 45.3507 5.63024 45.3507C7.31346 45.3507 11.6934 45.2556 12.5646 45.2556V45.7846L10.9288 45.9807C9.48268 46.1709 8.71219 46.8485 8.71219 48.1026C8.71219 48.7801 9.0026 49.9867 9.38785 51.0506L17.7151 73.0654L24.3116 54.6226C25.3251 51.7281 25.7578 50.0877 25.7578 48.6375C25.7578 47.1397 25.0821 46.1769 23.5411 45.9807L22.0002 45.7846V45.2556C22.9129 45.2556 25.5622 45.3507 27.198 45.3507C28.8812 45.3507 31.3349 45.2556 32.2062 45.2556V45.7846H32.2002Z" fill="white"/>
<path d="M31.2399 64.3225V64.8514C31.2399 72.2392 34.4641 76.584 39.0396 76.584C41.7837 76.584 43.3721 75.2823 45.2983 72.7207L45.8732 73.0119C44.0418 76.5364 41.1555 78.9495 37.546 78.9495C31.8681 78.9495 27.9683 74.5572 27.9683 67.4606C27.9683 59.8826 33.0239 55.0505 37.789 55.0505C42.9394 55.0505 45.731 58.1412 45.974 64.3165H31.2399V64.3225ZM41.926 63.5022C41.8311 58.7236 40.0471 55.9718 37.1608 55.9718C34.0314 55.9718 31.6251 58.4324 31.2873 63.5022H41.926Z" fill="white"/>
<path d="M71.3408 78.373C70.2799 78.373 68.3596 78.3255 66.4275 78.3255C64.5012 78.3255 62.4802 78.373 61.3719 78.373V77.844L62.1898 77.7014C64.3531 77.3151 64.6435 76.8812 64.6435 72.6791V62.587C64.6435 58.8663 63.0551 57.0833 60.5006 57.0833C58.3373 57.0833 56.6008 58.0461 54.965 59.639V72.6732C54.965 76.8752 55.2554 77.3091 57.4187 77.6954L58.2366 77.8381V78.3671C57.1282 78.3671 55.1546 78.3195 53.2284 78.3195C51.2548 78.3195 49.3285 78.3671 48.2676 78.3671V77.8381L49.0855 77.6954C51.154 77.3091 51.4918 76.8277 51.4918 72.6732V61.3269C51.4918 58.9614 51.1066 58.3314 49.4234 57.6598L48.2202 57.1784V56.792L54.5264 55.1992L54.959 55.4904V58.6761C57.3179 56.5067 59.1434 55.1516 61.9883 55.1516C65.9355 55.1516 68.1047 57.422 68.1047 62.1531V72.6791C68.1047 76.8812 68.3952 77.3151 70.511 77.7014L71.3289 77.844V78.373H71.3408Z" fill="white"/>
<path d="M84.9668 76.3463C83.4258 77.7966 81.8374 78.7594 79.7689 78.7594C76.8826 78.7594 75.146 77.119 75.146 73.8857V57.5648L75.1638 57.0417L77.9909 48.7327H78.6132V55.9243V57.5648V73.3033C78.6132 75.7163 79.5733 76.9229 81.4522 76.9229C82.7027 76.9229 83.4732 76.5841 84.5341 75.8114L84.9668 76.3463Z" fill="white"/>
<path d="M109.516 78.3731C107.447 78.3731 104.751 78.3731 102.825 78.5157V75.33C100.513 77.4994 98.6343 78.8545 95.8428 78.8545C91.8481 78.8545 89.6788 76.5841 89.6788 71.853V61.327C89.6788 58.9615 89.2936 58.3315 87.6104 57.6598L86.4072 57.1784V56.7921L92.7608 55.1992L93.146 55.4905V71.4191C93.146 75.1338 94.7344 76.9228 97.3363 76.9228C99.4581 76.9228 101.189 75.96 102.825 74.3612V61.327C102.825 58.9615 102.439 58.3315 100.756 57.6598L99.5529 57.1784V56.7921L105.907 55.1992L106.292 55.4905V72.6791C106.292 76.8812 106.63 77.3151 108.698 77.7014L109.516 77.8441V78.3731V78.3731Z" fill="white"/>
<path d="M124.25 59.8351C123.384 59.8351 122.466 59.3061 120.783 57.8559C119.437 58.581 118.281 59.5914 117.369 60.7504V72.6731C117.369 76.8752 117.707 77.309 120.545 77.6954L121.606 77.838V78.367C120.208 78.367 117.612 78.3195 115.685 78.3195C113.712 78.3195 111.738 78.367 110.677 78.367V77.838L111.495 77.6954C113.564 77.309 113.901 76.8276 113.901 72.6731V61.3269C113.901 58.9614 113.516 58.3313 111.833 57.6597L110.63 57.1783V56.792L116.936 55.1991L117.369 55.4903V59.4963C119.971 56.3105 121.796 55.104 123.722 55.104C125.121 55.104 126.081 55.734 126.081 57.0357C126.081 58.7712 125.21 59.8351 124.25 59.8351Z" fill="white"/>
<path d="M130.266 64.3225V64.8514C130.266 72.2392 133.49 76.584 138.065 76.584C140.81 76.584 142.398 75.2823 144.324 72.7207L144.905 73.0119C143.074 76.5364 140.187 78.9495 136.578 78.9495C130.9 78.9495 127 74.5572 127 67.4606C127 59.8826 132.056 55.0505 136.821 55.0505C141.971 55.0505 144.763 58.1412 145.006 64.3165H130.266V64.3225ZM140.952 63.5022C140.857 58.7236 139.073 55.9718 136.187 55.9718C133.057 55.9718 130.651 58.4324 130.313 63.5022H140.952Z" fill="white"/>
<path d="M14.6273 120.857C10.9704 120.857 8.2737 120.132 6.73273 119.36L5.71924 112.893H6.30007L6.97573 114.296C9.04419 118.545 11.3082 120.037 15.0125 120.037C19.7777 120.037 22.5692 117.529 22.5692 113.083C22.5692 108.162 18.7642 106.902 14.7221 105.214C10.5792 103.526 6.68531 101.689 6.68531 95.5081C6.68531 90.4858 11.1127 86.8662 16.4112 86.8662C19.7362 86.8662 21.9469 87.3952 23.6835 88.1678L24.5962 94.8305H24.0154L23.4345 93.4279C21.7513 89.3209 19.5821 87.6805 16.1208 87.6805C11.978 87.6805 9.66651 90.1886 9.66651 94.0519C9.66651 99.0267 13.1337 100.085 17.081 101.63C21.6091 103.413 25.5564 105.446 25.5564 111.722C25.5564 117.285 20.6015 120.857 14.6273 120.857Z" fill="white"/>
<path d="M64.9403 120.424C62.8718 120.424 60.1751 120.424 58.2489 120.566V117.381C55.9374 119.55 54.0586 120.905 51.2671 120.905C47.2724 120.905 45.1032 118.635 45.1032 113.904V103.378C45.1032 101.012 44.7179 100.382 43.0347 99.7104L41.8315 99.229V98.8426L48.1851 97.2498L48.5704 97.541V113.47C48.5704 117.184 50.1587 118.973 52.7606 118.973C54.8765 118.973 56.6131 118.011 58.2489 116.412V103.378C58.2489 101.012 57.8636 100.382 56.1804 99.7104L54.9773 99.229V98.8426L61.3308 97.2498L61.7161 97.541V114.73C61.7161 118.932 62.0539 119.366 64.1224 119.752L64.9403 119.895V120.424V120.424Z" fill="white"/>
<path d="M88.6235 120.423C86.5017 120.423 83.8583 120.423 81.9321 120.566V117.862C80.1007 119.55 78.2219 120.905 75.4363 120.905C70.2859 120.905 66.9609 116.269 66.9609 110.426C66.9609 102.462 71.6787 97.4873 77.5048 97.4873C79.3302 97.4873 80.729 97.6299 81.9321 97.9212V91.306C81.9321 88.9405 81.4995 88.4115 79.8637 87.6864L78.6605 87.1574V86.7711L84.9667 85.1782L85.3993 85.4695V114.724C85.3993 118.926 85.6897 119.36 87.8056 119.746L88.6235 119.888V120.423ZM81.9321 104.976C81.9321 100.584 80.0059 98.3134 76.8765 98.3134C72.9293 98.3134 70.1851 101.594 70.1851 107.966C70.1851 114.337 73.1663 118.682 77.3092 118.682C79.2354 118.682 80.486 118.153 81.9321 116.946V104.976V104.976Z" fill="white"/>
<path d="M100.08 120.423C98.972 120.423 97.0458 120.376 95.1196 120.376C93.1459 120.376 91.2197 120.423 90.1114 120.423V119.894L90.9293 119.752C93.0511 119.365 93.3356 118.884 93.3356 114.73V103.383C93.3356 101.018 92.9503 100.388 91.2671 99.7161L90.064 99.2347V98.8484L96.4175 97.2555L96.8028 97.5468V114.735C96.8028 118.938 97.0932 119.371 99.2565 119.758L100.074 119.9V120.423H100.08ZM94.6454 91.942C93.2467 91.942 92.1917 90.9257 92.1917 89.5289C92.1917 88.1322 93.2467 87.0208 94.6454 87.0208C96.0441 87.0208 97.0991 88.1322 97.0991 89.5289C97.0991 90.9257 96.0382 91.942 94.6454 91.942Z" fill="white"/>
<path d="M112.307 121C106.914 121 102.392 116.655 102.392 108.834C102.392 102.218 106.772 97.1011 112.307 97.1011C117.748 97.1011 122.276 101.446 122.276 109.267C122.276 115.889 117.896 121 112.307 121ZM111.637 97.9272C108.17 97.9272 106.244 101.018 106.244 107.918C106.244 114.967 108.893 120.18 113.03 120.18C116.497 120.18 118.424 117.089 118.424 110.189C118.424 103.14 115.78 97.9272 111.637 97.9272Z" fill="white"/>
<path d="M77.2026 59.3595L83.8348 57.3268V56.7979H77.2026" fill="white"/>
<path d="M75.5667 56.9167L71.1689 58.26V58.789H75.4066" fill="white"/>
<path d="M40.3852 118.397C38.8442 119.847 37.2559 120.81 35.1874 120.81C32.301 120.81 30.5645 119.169 30.5645 115.936V99.6212L30.5822 99.0981L33.4093 90.7891H34.0317V97.9807V99.6212V115.36C34.0317 117.773 34.9918 118.979 36.8706 118.979C38.1212 118.979 38.8917 118.64 39.9526 117.868L40.3852 118.397Z" fill="white"/>
<path d="M32.6206 101.416L39.2587 99.3833V98.8484H32.6206" fill="white"/>
<path d="M30.985 98.9685L26.5933 100.318V100.847H30.8309" fill="white"/>
<path d="M31.1159 3.79963L31.9812 3.65699V3.12207C31.1159 3.12207 28.6562 3.21717 26.973 3.21717C25.3372 3.21717 22.6879 3.12207 21.7693 3.12207V3.65699L23.3102 3.84718C24.8512 4.04332 25.5269 5.00617 25.5269 6.50394C25.5269 7.95417 25.0942 9.59458 24.0807 12.495L17.4842 30.9497L9.15103 8.92296C8.76579 7.85907 8.47537 6.65253 8.47537 5.97497C8.47537 4.72088 9.24586 4.04332 10.692 3.84718L12.3278 3.65699V3.12207C11.4625 3.12207 7.07664 3.21717 5.39342 3.21717C3.75761 3.21717 0.912732 3.12207 0 3.12207V3.70454L1.29798 3.89473C2.88637 4.13841 3.75761 5.19636 4.76517 7.90662L15.8484 36.8398H16.3284L26.73 9.1607C28.1762 5.24986 29.2371 4.09087 31.1159 3.79963Z" fill="white"/>
<path d="M44.7534 22.2067C44.5104 16.0255 41.7189 12.9348 36.5625 12.9348C31.7914 12.9348 26.7358 17.7669 26.7358 25.3509C26.7358 32.4534 30.6357 36.8457 36.3195 36.8457C39.9349 36.8457 42.8213 34.4326 44.6527 30.9021L44.0778 30.6109C42.1515 33.1726 40.5631 34.4742 37.8131 34.4742C33.2376 34.4742 30.0075 30.1295 30.0075 22.7357V22.2067H44.7534ZM35.9343 13.8501C38.8266 13.8501 40.6046 16.602 40.7054 21.3865H30.0608C30.3986 16.3107 32.8049 13.8501 35.9343 13.8501Z" fill="white"/>
<path d="M60.1218 12.9824C58.1956 12.9824 56.3642 14.189 53.7623 17.3747V13.3628L53.3297 13.0716L47.0176 14.6704V15.0567L48.2207 15.5381C49.9039 16.2157 50.2892 16.8398 50.2892 19.2112V30.5634C50.2892 34.7179 49.9514 35.1994 47.8829 35.5857L47.065 35.7283V36.2633C48.1259 36.2633 50.0995 36.2157 52.0732 36.2157C53.9994 36.2157 56.6013 36.2633 58 36.2633V35.7283L56.9391 35.5857C54.0942 35.1994 53.7623 34.7655 53.7623 30.5634V18.6288C54.675 17.4698 55.8308 16.4534 57.1821 15.7283C58.8712 17.1786 59.784 17.7075 60.6493 17.7075C61.6154 17.7075 62.4807 16.6436 62.4807 14.9081C62.4807 13.6065 61.5205 12.9824 60.1218 12.9824Z" fill="white"/>
<path d="M71.2526 30.5633V13.3686L70.8673 13.0774L64.5078 14.6703V15.0566L65.711 15.538C67.3942 16.2156 67.7794 16.8397 67.7794 19.2111V30.5633C67.7794 34.7178 67.489 35.1992 65.3731 35.5856L64.5552 35.7282V36.2631C65.6635 36.2631 67.5898 36.2156 69.5634 36.2156C71.4896 36.2156 73.4159 36.2631 74.5242 36.2631V35.7282L73.7063 35.5856C71.537 35.1992 71.2526 34.7654 71.2526 30.5633Z" fill="white"/>
<path d="M69.0831 7.76386C70.4819 7.76386 71.5428 6.74752 71.5428 5.35079C71.5428 3.94811 70.4819 2.83667 69.0831 2.83667C67.6844 2.83667 66.6294 3.94811 66.6294 5.35079C66.6235 6.74752 67.6844 7.76386 69.0831 7.76386Z" fill="white"/>
<path d="M86.52 2.5454C87.9187 4.6197 89.0271 5.68359 90.325 5.68359C91.4808 5.68359 92.2987 4.32846 92.2987 3.12193C92.2987 1.91539 91.0955 0.994141 89.1693 0.994141C83.5803 0.994141 79.39 7.17542 79.39 13.4102V13.743L75.1523 15.0387V15.5677H79.39V30.5513C79.39 34.7059 79.0522 35.2349 76.9837 35.5736L76.1184 35.7163V36.2512C77.2267 36.2512 79.2004 36.2036 81.174 36.2036C83.0528 36.2036 85.6547 36.2512 87.0475 36.2512V35.7163L86.034 35.5736C83.1417 35.1398 82.8098 34.7534 82.8098 30.5513V15.5736L87.818 14.0402V13.5112H82.8098V11.1457C82.8157 5.73708 83.9655 3.6093 86.52 2.5454Z" fill="white"/>
<path d="M108.876 13.5588C106.95 13.5588 105.646 13.5112 104.638 13.5112V14.0461L105.699 14.1888C106.807 14.3314 107.388 14.9139 107.388 15.8827C107.388 16.9466 106.955 18.5395 106.232 20.5187L102.184 31.8233L97.271 18.3968C96.9332 17.4815 96.6428 16.3701 96.6428 15.645C96.6428 14.8248 96.9332 14.3909 98.2786 14.1947L99.4343 14.0521V13.5172C98.3734 13.5172 96.2576 13.5647 94.278 13.5647C92.3518 13.5647 90.5204 13.5172 89.4595 13.5172V14.0521L90.3722 14.1947C91.9606 14.4384 92.4407 15.0625 93.8394 18.7356L100.483 36.2215C99.6655 38.3968 98.8476 40.2809 98.0771 41.7311C94.7521 41.2973 92.8259 42.4087 92.8259 44.0491C92.8259 45.3032 93.549 46.0283 94.847 46.0283C96.5302 46.0283 98.2667 44.5306 99.8077 40.4711L107.945 19.0744C109.344 15.4488 110.014 14.486 111.608 14.1947L112.426 14.0521V13.5172C111.377 13.5112 110.802 13.5588 108.876 13.5588Z" fill="white"/>
<path d="M31.1159 3.80376L31.9812 3.66122V3.12671C31.1159 3.12671 28.6562 3.22173 26.973 3.22173C25.3372 3.22173 22.6879 3.12671 21.7693 3.12671V3.66122L23.3102 3.85127C24.8512 4.04726 25.5269 5.00938 25.5269 6.50601C25.5269 7.95513 25.0942 9.59431 24.0807 12.4925L17.4842 30.9332L9.15103 8.9232C8.76579 7.86011 8.47537 6.65449 8.47537 5.97744C8.47537 4.72431 9.24586 4.04726 10.692 3.85127L12.3278 3.66122V3.12671C11.4625 3.12671 7.07664 3.22173 5.39342 3.22173C3.75761 3.22173 0.912733 3.12671 0 3.12671V3.70873L1.29798 3.89878C2.88637 4.14228 3.75761 5.19943 4.76518 7.90762L15.8484 36.8188H16.3284L26.73 9.16076C28.1762 5.25288 29.2371 4.09477 31.1159 3.80376Z" fill="white"/>
<path d="M44.7534 22.1963C44.5104 16.0197 41.7189 12.9314 36.5625 12.9314C31.7914 12.9314 26.7358 17.7598 26.7358 25.338C26.7358 32.4351 30.6357 36.8241 36.3195 36.8241C39.9349 36.8241 42.8213 34.4128 44.6527 30.8851L44.0778 30.594C42.1515 33.1538 40.5631 34.4544 37.8131 34.4544C33.2376 34.4544 30.0075 30.113 30.0075 22.7248V22.1963H44.7534ZM35.9343 13.846C38.8266 13.846 40.6046 16.5958 40.7054 21.3767H30.0608C30.3986 16.3048 32.8049 13.846 35.9343 13.846Z" fill="white"/>
<path d="M60.1218 12.979C58.1956 12.979 56.3642 14.1846 53.7623 17.3679V13.3591L53.3297 13.0681L47.0176 14.6657V15.0517L48.2207 15.5328C49.9039 16.2098 50.2892 16.8334 50.2892 19.2031V30.5466C50.2892 34.698 49.9514 35.1791 47.8829 35.5651L47.065 35.7077V36.2422C48.1259 36.2422 50.0995 36.1947 52.0732 36.1947C53.9994 36.1947 56.6013 36.2422 58 36.2422V35.7077L56.9391 35.5651C54.0942 35.1791 53.7623 34.7455 53.7623 30.5466V18.6211C54.675 17.463 55.8308 16.4474 57.1821 15.7228C58.8712 17.172 59.784 17.7005 60.6493 17.7005C61.6154 17.7005 62.4807 16.6374 62.4807 14.9032C62.4807 13.6026 61.5205 12.979 60.1218 12.979Z" fill="white"/>
<path d="M71.2526 30.5466V13.365L70.8673 13.074L64.5078 14.6656V15.0517L65.711 15.5327C67.3942 16.2098 67.7794 16.8334 67.7794 19.203V30.5466C67.7794 34.698 67.489 35.179 65.3731 35.5651L64.5552 35.7076V36.2421C65.6635 36.2421 67.5898 36.1946 69.5634 36.1946C71.4896 36.1946 73.4159 36.2421 74.5242 36.2421V35.7076L73.7063 35.5651C71.537 35.179 71.2526 34.7455 71.2526 30.5466Z" fill="white"/>
<path d="M69.0831 7.76499C70.4819 7.76499 71.5428 6.74942 71.5428 5.35375C71.5428 3.95215 70.4819 2.84155 69.0831 2.84155C67.6844 2.84155 66.6294 3.95215 66.6294 5.35375C66.6235 6.74942 67.6844 7.76499 69.0831 7.76499Z" fill="white"/>
<path d="M86.52 2.55009C87.9187 4.62281 89.0271 5.68589 90.325 5.68589C91.4808 5.68589 92.2987 4.33179 92.2987 3.12617C92.2987 1.92055 91.0955 1 89.1693 1C83.5803 1 79.39 7.17659 79.39 13.4066V13.7392L75.1523 15.0339V15.5625H79.39V30.5348C79.39 34.6861 79.0522 35.2147 76.9837 35.5532L76.1184 35.6958V36.2303C77.2267 36.2303 79.2004 36.1828 81.174 36.1828C83.0528 36.1828 85.6547 36.2303 87.0475 36.2303V35.6958L86.034 35.5532C83.1417 35.1197 82.8098 34.7337 82.8098 30.5348V15.5684L87.818 14.0362V13.5076H82.8098V11.1439C82.8157 5.73934 83.9655 3.61317 86.52 2.55009Z" fill="white"/>
<path d="M108.876 13.5551C106.95 13.5551 105.646 13.5076 104.638 13.5076V14.0421L105.699 14.1846C106.807 14.3272 107.388 14.9092 107.388 15.8772C107.388 16.9403 106.955 18.532 106.232 20.5097L102.184 31.8057L97.271 18.3895C96.9332 17.4748 96.6428 16.3642 96.6428 15.6397C96.6428 14.8201 96.9332 14.3865 98.2786 14.1906L99.4343 14.048V13.5135C98.3734 13.5135 96.2576 13.561 94.278 13.561C92.3518 13.561 90.5204 13.5135 89.4595 13.5135V14.048L90.3722 14.1906C91.9606 14.4341 92.4407 15.0577 93.8394 18.728L100.483 36.2006C99.6655 38.3743 98.8476 40.257 98.0771 41.7061C94.7521 41.2725 92.8259 42.3831 92.8259 44.0223C92.8259 45.2754 93.549 46 94.847 46C96.5302 46 98.2667 44.5034 99.8077 40.447L107.945 19.0665C109.344 15.4437 110.014 14.4816 111.608 14.1906L112.426 14.048V13.5135C111.377 13.5076 110.802 13.5551 108.876 13.5551Z" fill="white"/>
</svg>
