<?xml version="1.0" encoding="utf-8"?>
<!-- Generator: Adobe Illustrator 24.0.1, SVG Export Plug-In . SVG Version: 6.00 Build 0)  -->
<svg version="1.1" id="Layer_1" xmlns="http://www.w3.org/2000/svg" xmlns:xlink="http://www.w3.org/1999/xlink" x="0px" y="0px"
	 viewBox="0 0 151.8 54.6" style="enable-background:new 0 0 151.8 54.6;" xml:space="preserve">
<style type="text/css">
	.st0{fill-rule:evenodd;clip-rule:evenodd;fill:#231F20;}
</style>
<path class="st0" d="M19.5,2.4C9.6,14,0.1,28.4,0,39.2c0,4,1.3,7.6,4.4,10.3c4.5,3.9,9.4,5.2,14.3,5.2c7.1,0,14.2-2.9,19.8-5.1
	c9.4-3.7,112.8-48.7,112.8-48.7c1-0.5,0.8-1.1-0.4-0.8C150.3,0.2,38.2,30.6,38.2,30.6c-2.2,0.6-4.4,0.9-6.5,0.9
	c-8.6,0.1-16.3-4.7-16.2-14.8C15.4,12.8,16.7,8,19.5,2.4L19.5,2.4z"/>
</svg>
