<?xml version="1.0" encoding="utf-8"?>
<!-- Generator: Adobe Illustrator 24.0.1, SVG Export Plug-In . SVG Version: 6.00 Build 0)  -->
<svg version="1.1" id="Layer_1" xmlns="http://www.w3.org/2000/svg" xmlns:xlink="http://www.w3.org/1999/xlink" x="0px" y="0px"
	 viewBox="0 0 249.6 32.9" style="enable-background:new 0 0 249.6 32.9;" xml:space="preserve">
<style type="text/css">
	.st0{fill:#231F20;}
</style>
<g>
	<path class="st0" d="M10.9,31.2V17.7h-6v13.5H0V0.3h4.8v13h6v-13h4.8v30.8H10.9z"/>
	<path class="st0" d="M36.3,19.1v12.1h-4.9V19.1l-6-18.7h5.4l3,12.2l3.1-12.2h5.3L36.3,19.1z"/>
	<path class="st0" d="M59.7,19.1h-2.9v12H52V0.3h7.8c5.6,0,7.9,2.9,7.9,9.4C67.6,15.9,65.6,19.1,59.7,19.1z M59.8,4.7h-3v10h3
		c2.6,0,3-2.3,3-5C62.8,7,62.4,4.7,59.8,4.7z"/>
	<path class="st0" d="M78.2,31.2V0.3h12.9v4.4H83v8.7h7v4.4h-7v9h8.1v4.4H78.2z"/>
	<path class="st0" d="M113.3,31.2l-4-12.6h-2.7v12.6h-4.8V0.3h7.8c5.6,0,7.9,2.7,7.9,9.1c0,3.8-0.8,6.5-3.6,8.1l4.6,13.7H113.3z
		 M109.5,4.7h-3v9.4h3c2.6,0,3-2.2,3-4.7S112.1,4.7,109.5,4.7z"/>
	<path class="st0" d="M168.6,29.3c-1.5,1.5-3.4,2.3-5.7,2.3c-2.3,0-4.3-0.7-5.8-2.3c-1.3-1.4-2.1-3.3-2.1-5.7V0.3h4.8v23.5
		c0,2.2,1.4,3.3,3,3.3c1.6,0,3-1.1,3-3.3V0.3h4.9v23.3C170.7,25.9,169.9,27.9,168.6,29.3z"/>
	<path class="st0" d="M194.4,31.2l-1.3-6.1H186l-1.2,6.1h-5.1l7.6-30.8h4.7l7.5,30.8H194.4z M189.6,7.8L187,20.7h5.3L189.6,7.8z"/>
	<path class="st0" d="M221.5,31.2l-5-12.7l-2.3,4.8v7.9h-4.9V0.3h4.9v14.5l6.7-14.5h4.9l-6.2,12.8l7.1,18.1H221.5z"/>
	<path class="st0" d="M236.7,31.2V0.3h12.9v4.4h-8.1v8.7h7v4.4h-7v9h8.1v4.4H236.7z"/>
	<path class="st0" d="M143.3,32.9l-2.6-2.2c-1.2,0.9-2.7,1.5-4.9,1.5c-3,0-4.8-1.2-6.1-2.7c-2.4-2.7-2.3-7.3-2.3-13.5
		c0-6.2,0-10.8,2.3-13.5c1.3-1.5,3.1-2.7,6.1-2.7c3,0,4.8,1.1,6.1,2.7c2.4,2.7,2.3,7.3,2.3,13.5c0,5.2,0,9.1-1.3,11.8l2.6,2.2
		L143.3,32.9z M138.2,5.7c-0.4-0.7-1.2-1.2-2.4-1.2c-1.2,0-1.9,0.5-2.3,1.2c-1,1.5-1.1,4.7-1.1,10.5c0,5.8,0.1,9,1.1,10.5
		c0.4,0.7,1.2,1.2,2.3,1.2c0.4,0,0.8,0,1.1-0.2l-1.6-1.4l2.3-2.7l1.3,1.1c0.4-1.7,0.4-4.1,0.4-8.4C139.3,10.3,139.2,7.2,138.2,5.7z"
		/>
</g>
</svg>
