<?xml version="1.0" encoding="utf-8"?>
<!-- Generator: Adobe Illustrator 24.0.1, SVG Export Plug-In . SVG Version: 6.00 Build 0)  -->
<svg version="1.1" id="Layer_1" xmlns="http://www.w3.org/2000/svg" xmlns:xlink="http://www.w3.org/1999/xlink" x="0px" y="0px"
	 viewBox="0 0 224.5 48.7" style="enable-background:new 0 0 224.5 48.7;" xml:space="preserve">
<style type="text/css">
	.st0{fill:#231F20;}
</style>
<g>
	<path class="st0" d="M15.4,12.1c-1.5,0-2.7,1.2-2.7,2.7c0,1.5,1.2,2.7,2.7,2.7c1.5,0,2.7-1.2,2.8-2.7
		C18.2,13.4,16.9,12.1,15.4,12.1"/>
	<path class="st0" d="M8.8,21.6c1.5,0,2.7,1.2,2.7,2.7c0,1.5-1.2,2.8-2.7,2.7c-1.5,0-2.7-1.2-2.7-2.7S7.3,21.6,8.8,21.6"/>
	<path class="st0" d="M15.4,36.5c-1.5,0-2.7-1.2-2.7-2.7c0-1.5,1.2-2.7,2.7-2.7c1.5,0,2.7,1.2,2.8,2.7
		C18.2,35.3,16.9,36.5,15.4,36.5"/>
	<path class="st0" d="M8.8,15.9c-1,0-1.8,0.8-1.8,1.8c0,1,0.8,1.8,1.8,1.8c1,0,1.8-0.8,1.8-1.8C10.6,16.7,9.8,15.9,8.8,15.9"/>
	<path class="st0" d="M1.8,22.5c1,0,1.8,0.8,1.8,1.8c0,1-0.8,1.8-1.8,1.8c-1,0-1.8-0.8-1.8-1.8C0,23.3,0.8,22.5,1.8,22.5"/>
	<path class="st0" d="M8.8,32.8c-1,0-1.8-0.8-1.8-1.8c0-1,0.8-1.8,1.8-1.8c1,0,1.8,0.8,1.8,1.8C10.6,31.9,9.8,32.8,8.8,32.8"/>
	<path class="st0" d="M18.9,19.4c2.8,0,5,2.2,5,5c0,2.8-2.2,5-5,5c-2.8,0-5-2.2-5-5C13.9,21.6,16.2,19.4,18.9,19.4"/>
	<path class="st0" d="M24.8,6.1c2.8,0,5,2.2,5,5c0,2.8-2.2,5-5,5c-2.8,0-5-2.2-5-5C19.8,8.4,22,6.1,24.8,6.1"/>
	<path class="st0" d="M24.8,42.5c2.8,0,5-2.2,5-5c0-2.8-2.2-5-5-5c-2.8,0-5,2.2-5,5C19.8,40.3,22,42.5,24.8,42.5"/>
	<path class="st0" d="M56.1,19.4c2.8,0,5,2.2,5,5c0,2.8-2.2,5-5,5c-2.8,0-5-2.2-5-5C51.1,21.6,53.4,19.4,56.1,19.4"/>
	<path class="st0" d="M45.3,37.5c0-2.8,2.2-5,5-5c2.8,0,5,2.2,5,5c0,2.8-2.2,5-5,5C47.5,42.5,45.3,40.3,45.3,37.5"/>
	<path class="st0" d="M45.3,11.1c0,2.8,2.2,5,5,5c2.8,0,5-2.2,5-5c0-2.8-2.2-5-5-5C47.5,6.2,45.3,8.4,45.3,11.1"/>
	<path class="st0" d="M42.4,5c0,2.8-2.2,5-5,5c-2.8,0-5-2.2-5-5c0-2.8,2.2-5,5-5C40.1,0,42.4,2.2,42.4,5"/>
	<path class="st0" d="M46,21.6c1.5,0,2.7,1.2,2.7,2.7c0,1.5-1.2,2.8-2.7,2.7c-1.5,0-2.7-1.2-2.7-2.7S44.5,21.6,46,21.6"/>
	<path class="st0" d="M42.4,43.7c0-2.8-2.2-5-5-5c-2.8,0-5,2.2-5,5c0,2.8,2.2,5,5,5C40.1,48.7,42.4,46.5,42.4,43.7"/>
	<path class="st0" d="M40.9,36.5c-1.5,0-2.7-1.2-2.7-2.7s1.2-2.7,2.7-2.7c1.5,0,2.7,1.2,2.8,2.7C43.7,35.3,42.4,36.5,40.9,36.5"/>
	<path class="st0" d="M40.9,12.1c-1.5,0-2.7,1.2-2.7,2.7s1.2,2.7,2.7,2.7c1.5,0,2.7-1.2,2.8-2.7C43.7,13.4,42.4,12.1,40.9,12.1"/>
	<path class="st0" d="M39.8,22.5c1,0,1.8,0.8,1.8,1.8c0,1-0.8,1.8-1.8,1.8c-1,0-1.8-0.8-1.8-1.8C37.9,23.3,38.8,22.5,39.8,22.5"/>
	<path class="st0" d="M35,33.5c-1,0-1.8-0.8-1.8-1.8c0-1,0.8-1.8,1.8-1.8c1,0,1.8,0.8,1.8,1.8C36.9,32.7,36.1,33.5,35,33.5"/>
	<path class="st0" d="M35,15.2c-1,0-1.8,0.8-1.8,1.8c0,1,0.8,1.8,1.8,1.8c1,0,1.8-0.8,1.8-1.8C36.9,16,36.1,15.2,35,15.2"/>
	<path class="st0" d="M80.3,14.3l-5.1,11.8h7.1L80.3,14.3z M84,36.6l-1-5.8h-9.7l-2.5,5.8H65l12.7-28h7.2l5.4,28H84z"/>
	<polygon class="st0" points="98.7,36.6 92.8,36.6 96.5,7.8 102.4,7.8 	"/>
	<polygon class="st0" points="109.1,36.6 103.2,36.6 107,7.8 112.9,7.8 	"/>
	<path class="st0" d="M124.9,19.3c-1.5,0-4.3,1.1-5,5.8c1,0,3.4-0.3,4.7-0.7c1.3-0.4,2.8-1.2,2.8-2.9
		C127.4,20.2,126.4,19.3,124.9,19.3 M128.4,27.3c-2.3,1.1-5.6,1.7-8.6,1.7c0,1.8,1.2,3.5,4,3.5c2.8,0,5.4-1.8,5.9-2.2l2,3.5
		c-1.8,1.8-5,3.3-9.1,3.3c-4.1,0-8.7-2.2-8.7-9.4c0-7.2,5.1-12.4,11.1-12.4c5.6,0,7.8,2.9,7.8,6C132.9,24.5,130.7,26.2,128.4,27.3"
		/>
	<path class="st0" d="M148.9,21.5c0,0-0.8-0.4-2.1-0.4c-1.2,0-2.1,0.4-3,1.3c-0.9,0.9-1.5,2-2.1,3.5l-1.4,10.8h-5.9l2.7-20.8h5.4
		v3.3c1.1-2.2,3.1-3.8,5.2-3.8c1.8,0,2.4,0.7,2.4,0.7L148.9,21.5z"/>
	<path class="st0" d="M161.2,20c-3.5,0-5.2,3.6-5.2,6.8c0,2.8,1.3,4.4,3.5,4.4c3.5,0,5.2-3.6,5.2-6.9C164.7,21.6,163.3,20,161.2,20
		 M169.5,33.1c-0.4,3-0.9,5.8-3.1,8c-2.1,2.2-5.1,3.2-8.8,3.2c-3.6,0-7.2-1.6-8.6-2.8l2.4-4c1.5,1.1,3.8,2.2,6.3,2.2
		c2.1,0,3.4-0.5,4.3-1.5c0.9-1,1.3-2.2,1.6-4.2l0.2-1.2c-0.4,0.7-2.3,3.2-6.1,3.2c-3.8,0-7.6-2.3-7.6-8.5c0-6.2,4-12.1,10.1-12.1
		c4.3,0,5.4,3.1,5.4,3.1l0.8-2.6h5.5L169.5,33.1z"/>
	<path class="st0" d="M185.1,20c-3.1,0-5.2,3.6-5.2,7.7c0,2.9,1.3,4.8,3.5,4.8c3.1,0,5.2-3.5,5.2-7.7C188.5,21.8,187.2,20,185.1,20
		 M192.9,36.6h-5.5v-2.8c0,0-2,3.3-6.2,3.3c-4.4,0-7.3-3.2-7.3-9.1c0-6.5,3.9-12.7,10.1-12.7c4.2,0,5.3,3.2,5.3,3.2l0.8-2.8h5.5
		L192.9,36.6z"/>
	<path class="st0" d="M217.8,24.5l-1.6,12.1h-5.9l1.6-12.2c0-0.4,0.1-0.7,0.1-1c0-1.9-0.9-2.9-2.7-2.9c-2.1,0-3.6,1.9-4.4,3.7
		l-1.6,12.4h-5.9l2.7-20.8h5.4v2.9c0.9-1.2,2.9-3.3,6.7-3.3c3.8,0,5.8,2.3,5.8,5.6C218.1,22.1,218,23.4,217.8,24.5"/>
	<polygon class="st0" points="220.7,34.8 220.1,34.8 220.1,34.5 221.7,34.5 221.7,34.8 221.1,34.8 221.1,36.6 220.7,36.6 	"/>
	<polygon class="st0" points="222,34.5 222.7,34.5 223.3,36.1 223.3,36.1 223.8,34.5 224.5,34.5 224.5,36.6 224.1,36.6 224.1,34.8 
		224.1,34.8 223.5,36.6 223.1,36.6 222.5,34.8 222.5,34.8 222.5,36.6 222,36.6 	"/>
</g>
</svg>
