<?xml version="1.0" encoding="utf-8"?>
<!-- Generator: Adobe Illustrator 24.0.1, SVG Export Plug-In . SVG Version: 6.00 Build 0)  -->
<svg version="1.1" id="Layer_1" xmlns="http://www.w3.org/2000/svg" xmlns:xlink="http://www.w3.org/1999/xlink" x="0px" y="0px"
	 viewBox="0 0 234.1 50.4" style="enable-background:new 0 0 234.1 50.4;" xml:space="preserve">
<style type="text/css">
	.st0{fill:#231F20;}
</style>
<path class="st0" d="M25.2,0C11.3,0,0,11.3,0,25.2c0,13.9,11.3,25.2,25.2,25.2c13.9,0,25.2-11.3,25.2-25.2C50.4,11.3,39.1,0,25.2,0z
	 M25.2,47.1c-12.1,0-21.9-9.8-21.9-21.9c0-12.1,9.8-21.9,21.9-21.9c12.1,0,21.9,9.8,21.9,21.9C47.1,37.3,37.3,47.1,25.2,47.1z
	 M34.3,25l-1.7-3.4l-5.2-10.5c-0.9-1.8-3.5-1.8-4.4,0l-5.2,10.5L16.1,25l-4.7,9.5h0.2h3.6h0.2l3.5-7.1l4.4,3.8
	c1.1,0.9,2.7,0.9,3.8,0l4.4-3.8l3.5,7.1h0.3h3.6H39L34.3,25z M25.2,28l-4.6-4l4.6-9.3l4.6,9.3L25.2,28z M132.5,34.5h-4.1v-23h4.1
	V34.5z M74.8,12.8L64,34.5h4.1l2.8-5.5h11.9l2.8,5.5h4.1L78.9,12.8c-0.4-0.8-1.2-1.3-2-1.3l0,0C76,11.5,75.2,12,74.8,12.8z
	 M72.5,25.7l4.3-8.7l4.3,8.7H72.5z M105.5,29l8.7-17.5h4.1l-10.8,21.7c-0.4,0.8-1.2,1.3-2,1.3l0,0c-0.9,0-1.6-0.5-2-1.3L92.6,11.5
	h4.1L105.5,29z M153.2,12.8l-10.8,21.7h4.1l2.8-5.5h11.9l2.8,5.5h4.1l-10.8-21.7c-0.4-0.8-1.2-1.3-2-1.3h0
	C154.4,11.5,153.6,12,153.2,12.8z M150.9,25.7l4.3-8.7l4.3,8.7H150.9z M219.2,12.8l-10.8,21.7h4.1l2.8-5.5h11.9l2.8,5.5h4.1
	l-10.8-21.7c-0.4-0.8-1.2-1.3-2-1.3l0,0C220.4,11.5,219.6,12,219.2,12.8z M216.9,25.7l4.3-8.7l4.3,8.7H216.9z M194,26.1l0.4-0.2
	c2.2-0.9,3.6-3.1,3.6-5.5v-2.7c0-3.5-2.8-6.3-6.3-6.3H178v23h4.1v-8.1h7.9l4.4,8.1h4.2L194,26.1z M190.8,23.1H182V15h8.7
	c1.9,0,3.5,1.6,3.5,3.5v1.1C194.3,21.5,192.7,23.1,190.8,23.1z"/>
</svg>
